<?xml version="1.0" encoding="utf-8"?>
<!-- Generator: Adobe Illustrator 25.3.1, SVG Export Plug-In . SVG Version: 6.00 Build 0)  -->
<svg version="1.1" id="Calque_1" xmlns="http://www.w3.org/2000/svg" xmlns:xlink="http://www.w3.org/1999/xlink" x="0px" y="0px"
	 viewBox="0 0 61.8 61.8" style="enable-background:new 0 0 61.8 61.8;" xml:space="preserve">
<style type="text/css">
	.st0{fill:none;stroke:#5BC5F2;stroke-miterlimit:10;}
	.st1{fill:#575751;}
	.st2{enable-background:new    ;}
</style>
<g id="Calque_2_1_">
	<g id="hobbies">
		<circle class="st0" cx="30.9" cy="30.9" r="30.4"/>
		<path class="st1" d="M42.9,17.5v16.8c0,1.1-0.9,2-2,2h-20c-1.1,0-2-0.9-2-2V17.5c0-1.1,0.9-2,2-2h20C42,15.5,42.9,16.4,42.9,17.5z
			 M23.7,19.5v-1.6c0-0.4-0.4-0.8-0.8-0.8h-1.6c-0.2,0-0.4,0.1-0.6,0.2c-0.2,0.1-0.2,0.3-0.2,0.6v1.6c0,0.4,0.4,0.8,0.8,0.8h1.6
			c0.2,0,0.4-0.1,0.6-0.2C23.6,19.9,23.7,19.7,23.7,19.5z M23.7,24.3v-1.6c0-0.2-0.1-0.4-0.2-0.6c-0.1-0.2-0.3-0.2-0.6-0.2h-1.6
			c-0.2,0-0.4,0.1-0.6,0.2c-0.2,0.1-0.2,0.3-0.2,0.6v1.6c0,0.2,0.1,0.4,0.2,0.6c0.1,0.2,0.3,0.2,0.6,0.2h1.6c0.2,0,0.4-0.1,0.6-0.2
			C23.6,24.7,23.7,24.5,23.7,24.3z M23.7,29.1v-1.6c0-0.4-0.4-0.8-0.8-0.8h-1.6c-0.2,0-0.4,0.1-0.6,0.2c-0.2,0.1-0.2,0.4-0.2,0.6
			v1.6c0,0.2,0.1,0.4,0.2,0.6c0.1,0.2,0.3,0.2,0.6,0.2h1.6c0.2,0,0.4-0.1,0.6-0.2C23.6,29.5,23.7,29.3,23.7,29.1z M23.7,33.9v-1.6
			c0-0.2-0.1-0.4-0.2-0.6c-0.1-0.2-0.3-0.2-0.6-0.2h-1.6c-0.4,0-0.8,0.4-0.8,0.8v1.6c0,0.2,0.1,0.4,0.2,0.6c0.1,0.2,0.3,0.2,0.6,0.2
			h1.6C23.3,34.7,23.7,34.3,23.7,33.9z M36.5,24.3v-6.4c0-0.2-0.1-0.4-0.2-0.6c-0.1-0.2-0.3-0.2-0.6-0.2h-9.6
			c-0.2,0-0.4,0.1-0.6,0.2c-0.2,0.1-0.2,0.3-0.2,0.6v6.4c0,0.2,0.1,0.4,0.2,0.6c0.1,0.2,0.3,0.2,0.6,0.2h9.6c0.2,0,0.4-0.1,0.6-0.2
			C36.4,24.7,36.5,24.5,36.5,24.3z M36.5,33.9v-6.4c0-0.2-0.1-0.4-0.2-0.6c-0.1-0.1-0.4-0.2-0.6-0.2h-9.6c-0.2,0-0.4,0.1-0.6,0.2
			c-0.2,0.1-0.2,0.4-0.2,0.6v6.4c0,0.2,0.1,0.4,0.2,0.6c0.1,0.2,0.3,0.2,0.6,0.2h9.6c0.2,0,0.4-0.1,0.6-0.2
			C36.4,34.3,36.5,34.1,36.5,33.9z M41.3,19.5v-1.6c0-0.2-0.1-0.4-0.2-0.6c-0.1-0.2-0.3-0.2-0.6-0.2h-1.6c-0.4,0-0.8,0.4-0.8,0.8
			v1.6c0,0.2,0.1,0.4,0.2,0.6c0.1,0.2,0.3,0.2,0.6,0.2h1.6C40.9,20.3,41.3,19.9,41.3,19.5z M41.3,24.3v-1.6c0-0.2-0.1-0.4-0.2-0.6
			c-0.1-0.2-0.3-0.2-0.6-0.2h-1.6c-0.2,0-0.4,0.1-0.6,0.2c-0.2,0.1-0.2,0.3-0.2,0.6v1.6c0,0.2,0.1,0.4,0.2,0.6
			c0.1,0.2,0.3,0.2,0.6,0.2h1.6c0.2,0,0.4-0.1,0.6-0.2C41.2,24.7,41.3,24.5,41.3,24.3z M41.3,29.1v-1.6c0-0.2-0.1-0.4-0.2-0.6
			c-0.1-0.1-0.3-0.2-0.6-0.2h-1.6c-0.4,0-0.8,0.4-0.8,0.8v1.6c0,0.2,0.1,0.4,0.2,0.6c0.1,0.2,0.3,0.2,0.6,0.2h1.6
			c0.2,0,0.4-0.1,0.6-0.2C41.2,29.5,41.3,29.3,41.3,29.1z M41.3,33.9v-1.6c0-0.4-0.4-0.8-0.8-0.8h-1.6c-0.2,0-0.4,0.1-0.6,0.2
			c-0.2,0.1-0.2,0.3-0.2,0.6v1.6c0,0.4,0.4,0.8,0.8,0.8h1.6c0.2,0,0.4-0.1,0.6-0.2C41.2,34.3,41.3,34.1,41.3,33.9z"/>
		<g class="st2">
			<path class="st1" d="M18.8,44.1c-0.4-0.2-0.7-0.5-0.9-0.9s-0.3-0.8-0.3-1.3c0-0.5,0.1-0.9,0.3-1.3s0.5-0.7,0.9-0.9
				c0.4-0.2,0.8-0.3,1.3-0.3c0.4,0,0.7,0.1,1,0.2c0.3,0.1,0.6,0.3,0.8,0.5l-0.2,0.2c-0.4-0.4-0.9-0.6-1.5-0.6
				c-0.4,0-0.8,0.1-1.1,0.3s-0.6,0.4-0.8,0.8s-0.3,0.7-0.3,1.1s0.1,0.8,0.3,1.1s0.5,0.6,0.8,0.8s0.7,0.3,1.1,0.3
				c0.6,0,1.1-0.2,1.5-0.6l0.2,0.2c-0.2,0.2-0.5,0.4-0.8,0.5c-0.3,0.1-0.6,0.2-1,0.2C19.6,44.4,19.2,44.3,18.8,44.1z"/>
			<path class="st1" d="M22.9,39.7c-0.1-0.1-0.1-0.1-0.1-0.2c0-0.1,0-0.1,0.1-0.2c0.1-0.1,0.1-0.1,0.2-0.1c0.1,0,0.1,0,0.2,0.1
				c0.1,0.1,0.1,0.1,0.1,0.2s0,0.1-0.1,0.2c-0.1,0.1-0.1,0.1-0.2,0.1C23,39.8,22.9,39.8,22.9,39.7z M22.9,40.7h0.3v3.7h-0.3V40.7z"
				/>
		</g>
		<g class="st2">
			<path class="st1" d="M27.6,41.1c0.3,0.3,0.4,0.6,0.4,1.1v2.1h-0.4v-2.1c0-0.4-0.1-0.7-0.3-0.9c-0.2-0.2-0.5-0.3-0.9-0.3
				c-0.4,0-0.8,0.1-1,0.4c-0.2,0.3-0.4,0.6-0.4,1v1.9h-0.3v-3.7h0.3v0.8c0.1-0.3,0.3-0.5,0.6-0.6c0.2-0.1,0.5-0.2,0.9-0.2
				C27,40.7,27.3,40.8,27.6,41.1z"/>
		</g>
		<g class="st2">
			<path class="st1" d="M32.5,42.6h-3.1c0,0.3,0.1,0.5,0.2,0.8s0.3,0.4,0.5,0.5s0.5,0.2,0.8,0.2c0.2,0,0.5,0,0.7-0.1
				c0.2-0.1,0.4-0.2,0.5-0.4l0.2,0.2c-0.2,0.2-0.4,0.3-0.6,0.4s-0.5,0.2-0.8,0.2c-0.4,0-0.7-0.1-1-0.2s-0.5-0.4-0.7-0.7
				s-0.2-0.6-0.2-1c0-0.4,0.1-0.7,0.2-1c0.2-0.3,0.4-0.5,0.6-0.7c0.3-0.2,0.6-0.2,0.9-0.2c0.3,0,0.6,0.1,0.9,0.2s0.5,0.4,0.6,0.7
				C32.5,41.8,32.6,42.2,32.5,42.6L32.5,42.6z M30.1,41.1c-0.2,0.1-0.4,0.3-0.5,0.5c-0.1,0.2-0.2,0.4-0.2,0.7h2.8
				c0-0.3-0.1-0.5-0.2-0.7c-0.1-0.2-0.3-0.4-0.5-0.5C31.3,41,31.1,41,30.8,41C30.6,41,30.3,41,30.1,41.1z M31.4,39.3h0.5l-1.1,0.8
				h-0.4L31.4,39.3z"/>
			<path class="st1" d="M39.3,41.1c0.3,0.3,0.4,0.6,0.4,1.1v2.1h-0.3v-2.1c0-0.4-0.1-0.7-0.3-0.9c-0.2-0.2-0.5-0.3-0.8-0.3
				c-0.4,0-0.7,0.1-1,0.4c-0.2,0.3-0.4,0.6-0.4,1v1.9h-0.3v-2.1c0-0.4-0.1-0.7-0.3-0.9C36,41.1,35.7,41,35.3,41
				c-0.4,0-0.7,0.1-1,0.4c-0.2,0.3-0.4,0.6-0.4,1v1.9h-0.3v-3.7H34v0.8c0.1-0.3,0.3-0.5,0.5-0.6c0.2-0.1,0.5-0.2,0.9-0.2
				c0.3,0,0.6,0.1,0.8,0.2c0.2,0.1,0.4,0.4,0.5,0.7c0.1-0.3,0.3-0.5,0.6-0.6c0.3-0.2,0.6-0.2,0.9-0.2C38.6,40.7,39,40.8,39.3,41.1z"
				/>
			<path class="st1" d="M43.4,41c0.2,0.2,0.4,0.6,0.4,1v2.3h-0.3v-0.7c-0.1,0.2-0.3,0.4-0.5,0.5s-0.5,0.2-0.8,0.2
				c-0.4,0-0.7-0.1-1-0.3s-0.4-0.4-0.4-0.8c0-0.3,0.1-0.5,0.3-0.7c0.2-0.2,0.6-0.3,1-0.3h1.3V42c0-0.3-0.1-0.6-0.3-0.8
				c-0.2-0.2-0.5-0.3-0.8-0.3c-0.2,0-0.5,0-0.7,0.1s-0.4,0.2-0.6,0.3l-0.2-0.3c0.2-0.2,0.4-0.3,0.7-0.4c0.3-0.1,0.5-0.1,0.8-0.1
				C42.8,40.7,43.1,40.8,43.4,41z M42.9,43.9c0.2-0.1,0.4-0.3,0.5-0.6v-0.7h-1.2c-0.4,0-0.6,0.1-0.8,0.2c-0.2,0.1-0.2,0.3-0.2,0.5
				c0,0.2,0.1,0.4,0.3,0.6c0.2,0.1,0.4,0.2,0.7,0.2C42.4,44.1,42.7,44,42.9,43.9z"/>
		</g>
	</g>
</g>
</svg>
