<svg xmlns="http://www.w3.org/2000/svg" viewBox="0 0 17.17 11.3"><defs><style>.cls-1{fill:#b5b5ac;}</style></defs><g id="Calque_2" data-name="Calque 2"><g id="compétences"><polygon class="cls-1" points="1.12 5.65 2.38 5.65 2.38 7.06 3.76 7.06 3.76 8.47 5.66 8.47 5.66 9.89 7.45 9.89 7.45 11.3 8.53 11.3 9.64 11.3 9.64 9.89 11.42 9.89 11.42 8.47 13.32 8.47 13.32 7.06 14.7 7.06 14.7 5.65 15.96 5.65 15.96 4.24 17.17 4.24 17.17 2.83 15.86 2.83 15.86 1.41 14.56 1.41 14.56 0 10.93 0 10.93 1.41 9.64 1.41 9.64 2.83 8.53 2.83 7.34 2.83 7.34 1.41 6.05 1.41 6.05 0 2.41 0 2.41 1.41 1.12 1.41 1.12 2.83 0 2.83 0 4.24 1.12 4.24 1.12 5.65"/></g></g></svg>