<?xml version="1.0" encoding="utf-8"?>
<!-- Generator: Adobe Illustrator 25.4.0, SVG Export Plug-In . SVG Version: 6.00 Build 0)  -->
<svg version="1.1" id="Calque_1" xmlns="http://www.w3.org/2000/svg" xmlns:xlink="http://www.w3.org/1999/xlink" x="0px" y="0px"
	 viewBox="0 0 98.5 13.6" style="enable-background:new 0 0 98.5 13.6;" xml:space="preserve">
<style type="text/css">
	.st0{enable-background:new    ;}
	.st1{fill:#83CFF4;}
</style>
<g id="Calque_2_1_">
	<g id="compétences">
		<g class="st0">
			<path class="st1" d="M3.3,10.4V9.3H2.2V8.2H1.1V3.8h1.1V2.7h1.1V1.6h4.4v1.1h1.1v1.1H6.5V2.7H4.4v1.1H3.3v4.4h1.1v1.1h2.2V8.2
				h2.2v1.1H7.6v1.1C7.6,10.4,3.3,10.4,3.3,10.4z"/>
			<path class="st1" d="M11.3,10.4V9.3h-1.1V6h1.1V4.9h5.5V6h1.1v3.3h-1.1v1.1C16.8,10.4,11.3,10.4,11.3,10.4z M15.7,9.3V6h-3.3v3.3
				H15.7z"/>
			<path class="st1" d="M19.4,10.4V4.9h6.5V6H27v4.4h-2.2V6h-1.1v4.4h-1.1V6h-1.1v4.4H19.4z"/>
			<path class="st1" d="M28.5,13.6V4.9H35V6h1.1v3.3H35v1.1h-4.4v3.3h-2.1V13.6z M34,9.3V6h-3.3v3.3H34z"/>
			<path class="st1" d="M38.8,10.4V9.3h-1.1V6h1.1V4.9h5.5V6h1.1v2.2h-5.5v1.1h4.4v1.1C44.3,10.4,38.8,10.4,38.8,10.4z M43.2,7.1V6
				h-3.3v1.1H43.2z M40.4,3.8V2.7h1.1V1.6h2.2v1.1h-1.1v1.1C42.6,3.8,40.4,3.8,40.4,3.8z"/>
			<path class="st1" d="M49,10.4V9.3h-1.1V6h-1.1V4.9h1.1V1.6h2.2v3.3h2.2V6h-2.2v3.3h2.2v1.1C52.3,10.4,49,10.4,49,10.4z"/>
			<path class="st1" d="M54.9,10.4V9.3h-1.1V6h1.1V4.9h5.5V6h1.1v2.2H56v1.1h4.4v1.1C60.4,10.4,54.9,10.4,54.9,10.4z M59.3,7.1V6H56
				v1.1H59.3z"/>
			<path class="st1" d="M63,10.4V4.9h6.5V6h1.1v4.4h-2.2V6h-3.3v4.4H63z"/>
			<path class="st1" d="M73.2,10.4V9.3h-1.1V6h1.1V4.9h5.5V6h1.1v1.1h-2.2V6h-3.3v3.3h3.3V8.2h2.2v1.1h-1.1v1.1
				C78.7,10.4,73.2,10.4,73.2,10.4z"/>
			<path class="st1" d="M82.4,10.4V9.3h-1.1V6h1.1V4.9h5.5V6H89v2.2h-5.5v1.1h4.4v1.1C87.9,10.4,82.4,10.4,82.4,10.4z M86.7,7.1V6
				h-3.3v1.1H86.7z"/>
			<path class="st1" d="M90.4,10.4V9.3h5.5V8.2h-4.4V7.1h-1.1V6h1.1V4.9H97V6h-4.4v1.1H97v1.1h1.1v1.1H97v1.1
				C97,10.4,90.4,10.4,90.4,10.4z"/>
		</g>
	</g>
</g>
</svg>
