<?xml version="1.0" encoding="utf-8"?>
<!-- Generator: Adobe Illustrator 25.3.1, SVG Export Plug-In . SVG Version: 6.00 Build 0)  -->
<svg version="1.1" id="Calque_1" xmlns="http://www.w3.org/2000/svg" xmlns:xlink="http://www.w3.org/1999/xlink" x="0px" y="0px"
	 viewBox="0 0 143.5 45" style="enable-background:new 0 0 143.5 45;" xml:space="preserve">
<style type="text/css">
	.st0{fill:#1D1D1B;}
	.st1{enable-background:new    ;}
	.st2{fill:#83CFF4;}
</style>
<g id="Calque_2_1_">
	<g id="contact">
		<polygon class="st0" points="127.7,45 0,44.6 0.1,24.2 127.8,24.6 136.1,35.4 		"/>
		<g class="st1">
			<path class="st2" d="M9.9,38.1l0-1.1l-1.1,0l0-1.1l-1.1,0l0-4.4l1.1,0l0-1.1l1.1,0l0-1.1l4.4,0l0,1.1l1.1,0l0,1.1l-2.2,0l0-1.1
				l-2.2,0l0,1.1l-1.1,0l0,4.4l1.1,0l0,1.1l2.2,0l0-1.1l2.2,0l0,1.1l-1.1,0l0,1.1L9.9,38.1z"/>
			<path class="st2" d="M18.1,38.1l0-1.1L17,37l0-3.3l1.1,0l0-1.1l5.5,0l0,1.1l1.1,0l0,3.3l-1.1,0l0,1.1L18.1,38.1z M22.4,37.1
				l0-3.3l-3.3,0l0,3.3L22.4,37.1z"/>
			<path class="st2" d="M26.2,38.2l0-5.5l6.5,0l0,1.1l1.1,0l0,4.4l-2.2,0l0-4.4l-3.3,0l0,4.4L26.2,38.2z"/>
			<path class="st2" d="M37.7,38.2l0-1.1l-1.1,0l0-3.3l-1.1,0l0-1.1l1.1,0l0-3.3l2.2,0l0,3.3l2.2,0l0,1.1l-2.2,0l0,3.3l2.2,0l0,1.1
				L37.7,38.2z"/>
			<path class="st2" d="M43.7,38.2l0-1.1l-1.1,0l0-1.1l1.1,0l0-1.1l4.4,0l0-1.1l-4.4,0l0-1.1l5.5,0l0,1.1l1.1,0l0,4.4L43.7,38.2z
				 M48.1,37.2l0-1.1l-3.3,0l0,1.1L48.1,37.2z"/>
			<path class="st2" d="M53,38.3l0-1.1l-1.1,0l0-3.3l1.1,0l0-1.1l5.5,0l0,1.1l1.1,0l0,1.1l-2.2,0l0-1.1l-3.3,0l0,3.3l3.3,0l0-1.1
				l2.2,0l0,1.1l-1.1,0l0,1.1L53,38.3z"/>
			<path class="st2" d="M63.3,38.3l0-1.1l-1.1,0l0-3.3l-1.1,0l0-1.1l1.1,0l0-3.3l2.2,0l0,3.3l2.2,0l0,1.1l-2.2,0l0,3.3l2.2,0l0,1.1
				L63.3,38.3z"/>
			<path class="st2" d="M69.3,38.3l0-1.1l-1.1,0l0-3.3l1.1,0l0-1.1l5.5,0l0,1.1l1.1,0l0,2.2l-5.5,0l0,1.1l4.4,0l0,1.1L69.3,38.3z
				 M73.7,35.1l0-1.1l-3.3,0l0,1.1L73.7,35.1z"/>
			<path class="st2" d="M77.5,38.3l0-1.1l1.1,0l0-1.1l1.1,0l0-1.1l1.1,0l0-1.1l-3.3,0l0-1.1l7.6,0l0,1.1l-1.1,0l0,1.1l-1.1,0l0,1.1
				l-1.1,0l0,1.1l3.3,0l0,1.1L77.5,38.3z"/>
			<path class="st2" d="M86.8,34.6l0-1.1l4.4,0l0,1.1L86.8,34.6z"/>
			<path class="st2" d="M92.8,38.4l0-5.5l6.5,0l0,1.1l1.1,0l0,4.4l-2.2,0l0-4.4l-1.1,0l0,4.4l-1.1,0l0-4.4L95,34l0,4.4L92.8,38.4z"
				/>
			<path class="st2" d="M103.1,38.4l0-1.1l-1.1,0l0-3.3l1.1,0l0-1.1l5.5,0l0,1.1l1.1,0l0,3.3l-1.1,0l0,1.1L103.1,38.4z M107.5,37.4
				l0-3.3l-3.3,0l0,3.3L107.5,37.4z"/>
			<path class="st2" d="M111.3,38.5l0-5.5l2.2,0l0,5.5L111.3,38.5z M111.3,31.9l0-2.2l2.2,0l0,2.2L111.3,31.9z"/>
		</g>
	</g>
</g>
</svg>
