<svg xmlns="http://www.w3.org/2000/svg" viewBox="0 0 105.84 9.08"><defs><style>.cls-1{fill:#83cff4;}</style></defs><g id="Calque_2" data-name="Calque 2"><g id="contact"><path class="cls-1" d="M2.17,8.72V7.63H1.09V6.54H0L0,2.17H1.1V1.09H2.2V0H6.57V1.1H7.65V2.2H5.47V1.1H3.29V2.18H2.2l0,4.36H3.27V7.64H5.45V6.56H7.63V7.65H6.54V8.74Z"/><path class="cls-1" d="M10.35,8.75V7.66H9.27V4.39h1.09V3.3l5.46,0V4.41h1.09V7.69H15.81V8.77Zm4.37-1.07V4.41l-3.27,0V7.67Z"/><path class="cls-1" d="M18.54,8.78l0-5.45,6.54,0V4.44h1.09l0,4.36H24l0-4.36H20.73V8.79Z"/><path class="cls-1" d="M30,8.82V7.73H28.9V4.45H27.82V3.36h1.09V.09h2.18V3.37h2.18V4.47H31.1V7.73h2.18V8.83Z"/><path class="cls-1" d="M36,8.84V7.75H34.9V6.66H36V5.57h4.37V4.49H36V3.39l5.45,0V4.5h1.09l0,4.36Zm4.37-1.07V6.68H37.09V7.75Z"/><path class="cls-1" d="M45.26,8.87V7.78H44.18V4.51h1.09V3.42l5.46,0V4.53h1.09V5.62H49.64V4.53l-3.27,0V7.79h3.27V6.71h2.18V7.81H50.72V8.89Z"/><path class="cls-1" d="M55.63,8.91V7.82H54.54V4.54H53.46V3.45h1.09V.18h2.19V3.46h2.18V4.56H56.73V7.82H58.9V8.92Z"/><path class="cls-1" d="M61.62,8.93V7.84H60.54V4.56h1.09V3.48l5.46,0V4.59h1.09V6.77l-5.46,0V7.84l4.36,0V9ZM66,5.67V4.58H62.73V5.66Z"/><path class="cls-1" d="M69.81,9V7.87H70.9V6.78H72V5.69h1.09V4.61l-3.27,0V3.5l7.63,0V4.62H76.37V5.71H75.27V6.8H74.18V7.88h3.27V9Z"/><path class="cls-1" d="M79.09,5.17V4.08l4.36,0V5.19Z"/><path class="cls-1" d="M85.08,9l0-5.45,6.54,0V4.67h1.09l0,4.37H90.53l0-4.36H89.46l0,4.36H88.35l0-4.36H87.28l0,4.36Z"/><path class="cls-1" d="M95.44,9.05V8H94.35l0-3.27h1.09V3.59l5.45,0V4.7H102V8H100.9V9.06ZM99.81,8V4.7H96.55V8Z"/><path class="cls-1" d="M103.62,9.07l0-5.45h2.19l0,5.45Zm0-6.54V.35h2.19V2.54Z"/></g></g></svg>