<?xml version="1.0" encoding="utf-8"?>
<!-- Generator: Adobe Illustrator 25.3.1, SVG Export Plug-In . SVG Version: 6.00 Build 0)  -->
<svg version="1.1" id="Calque_1" xmlns="http://www.w3.org/2000/svg" xmlns:xlink="http://www.w3.org/1999/xlink" x="0px" y="0px"
	 viewBox="0 0 136.1 20.8" style="enable-background:new 0 0 136.1 20.8;" xml:space="preserve">
<style type="text/css">
	.st0{fill:#B5B5AC;}
	.st1{enable-background:new    ;}
	.st2{fill:#575751;}
</style>
<g id="Calque_2_1_">
	<g id="contact">
		<polygon class="st0" points="127.7,20.8 0,20.4 0.1,0 127.8,0.4 136.1,11.3 		"/>
		<g class="st1">
			<path class="st2" d="M9.9,13.9l0-1.1l-1.1,0l0-1.1l-1.1,0l0-4.4l1.1,0l0-1.1l1.1,0l0-1.1l4.4,0l0,1.1l1.1,0l0,1.1l-2.2,0l0-1.1
				l-2.2,0l0,1.1l-1.1,0l0,4.4l1.1,0l0,1.1l2.2,0l0-1.1l2.2,0l0,1.1l-1.1,0l0,1.1L9.9,13.9z"/>
			<path class="st2" d="M17.9,14l0-1.1l-1.1,0l0-3.3l1.1,0l0-1.1l5.5,0l0,1.1l1.1,0l0,3.3l-1.1,0l0,1.1L17.9,14z M22.3,12.9l0-3.3
				l-3.3,0l0,3.3L22.3,12.9z"/>
			<path class="st2" d="M26,14l0-5.5l6.5,0l0,1.1l1.1,0l0,4.4l-2.2,0l0-4.4l-3.3,0l0,4.4L26,14z"/>
			<path class="st2" d="M37.3,14l0-1.1l-1.1,0l0-3.3l-1.1,0l0-1.1l1.1,0l0-3.3l2.2,0l0,3.3l2.2,0l0,1.1l-2.2,0l0,3.3l2.2,0l0,1.1
				L37.3,14z"/>
			<path class="st2" d="M43.2,14.1l0-1.1l-1.1,0l0-1.1l1.1,0l0-1.1l4.4,0l0-1.1l-4.4,0l0-1.1l5.5,0l0,1.1l1.1,0l0,4.4L43.2,14.1z
				 M47.6,13l0-1.1l-3.3,0l0,1.1L47.6,13z"/>
			<path class="st2" d="M52.4,14.1l0-1.1l-1.1,0l0-3.3l1.1,0l0-1.1l5.5,0l0,1.1l1.1,0l0,1.1l-2.2,0l0-1.1l-3.3,0l0,3.3l3.3,0l0-1.1
				l2.2,0l0,1.1l-1.1,0l0,1.1L52.4,14.1z"/>
			<path class="st2" d="M62.6,14.1l0-1.1l-1.1,0l0-3.3l-1.1,0l0-1.1l1.1,0l0-3.3l2.2,0l0,3.3l2.2,0l0,1.1l-2.2,0l0,3.3l2.2,0l0,1.1
				L62.6,14.1z"/>
			<path class="st2" d="M68.5,14.1l0-1.1l-1.1,0l0-3.3l1.1,0l0-1.1l5.5,0l0,1.1l1.1,0l0,2.2l-5.5,0l0,1.1l4.4,0l0,1.1L68.5,14.1z
				 M72.9,10.9l0-1.1l-3.3,0l0,1.1L72.9,10.9z"/>
			<path class="st2" d="M76.5,14.2l0-1.1l1.1,0l0-1.1l1.1,0l0-1.1l1.1,0l0-1.1l-3.3,0l0-1.1l7.6,0l0,1.1l-1.1,0l0,1.1l-1.1,0l0,1.1
				l-1.1,0l0,1.1l3.3,0l0,1.1L76.5,14.2z"/>
			<path class="st2" d="M85.7,10.4l0-1.1l4.4,0l0,1.1L85.7,10.4z"/>
			<path class="st2" d="M91.6,14.2l0-5.5l6.5,0l0,1.1l1.1,0l0,4.4l-2.2,0l0-4.4l-1.1,0l0,4.4l-1.1,0l0-4.4l-1.1,0l0,4.4L91.6,14.2z"
				/>
			<path class="st2" d="M101.8,14.3l0-1.1l-1.1,0l0-3.3l1.1,0l0-1.1l5.5,0l0,1.1l1.1,0l0,3.3l-1.1,0l0,1.1L101.8,14.3z M106.2,13.2
				l0-3.3l-3.3,0l0,3.3L106.2,13.2z"/>
			<path class="st2" d="M109.9,14.3l0-5.5l2.2,0l0,5.5L109.9,14.3z M109.9,7.7l0-2.2l2.2,0l0,2.2L109.9,7.7z"/>
		</g>
	</g>
</g>
</svg>
