<?xml version="1.0" encoding="utf-8"?>
<!-- Generator: Adobe Illustrator 25.3.1, SVG Export Plug-In . SVG Version: 6.00 Build 0)  -->
<svg version="1.1" id="Calque_1" xmlns="http://www.w3.org/2000/svg" xmlns:xlink="http://www.w3.org/1999/xlink" x="0px" y="0px"
	 viewBox="0 0 98.1 126.8" style="enable-background:new 0 0 98.1 126.8;" xml:space="preserve">
<style type="text/css">
	.st0{fill:none;stroke:#5BC5F2;stroke-miterlimit:10;}
	.st1{fill:none;stroke:#575751;stroke-linecap:round;stroke-linejoin:round;}
	.st2{fill:#FFFFFF;}
	.st3{fill:#575751;}
	.st4{enable-background:new    ;}
	.st5{fill:#1D1D1B;}
</style>
<circle class="st0" cx="49" cy="49" r="48.5"/>
<line class="st1" x1="49" y1="108" x2="49" y2="77.3"/>
<path class="st2" d="M52.8,77.5c0-2.1-1.7-3.8-3.8-3.8c-2.1,0-3.8,1.7-3.8,3.8c0,2.1,1.7,3.8,3.8,3.8S52.8,79.6,52.8,77.5L52.8,77.5
	z"/>
<path class="st3" d="M53.3,77.5c0,2.4-1.9,4.3-4.3,4.3c-2.4,0-4.3-1.9-4.3-4.3c0-2.4,1.9-4.3,4.3-4.3l0,0
	C51.4,73.2,53.3,75.1,53.3,77.5C53.3,77.5,53.3,77.5,53.3,77.5z M45.8,77.5c0,1.8,1.5,3.3,3.3,3.3c1.8,0,3.3-1.5,3.3-3.3
	c0-1.8-1.5-3.3-3.3-3.3S45.8,75.7,45.8,77.5L45.8,77.5z"/>
<path class="st3" d="M48.4,35.3c-5.3,0.3-9.4,4.8-9.2,10.1c0.1,2.8,1.4,5.3,3.6,7v5c0,2.8,2.2,5,5,5h2c2.8,0,5-2.2,5-5v-5
	c4.1-3.3,4.8-9.4,1.5-13.6C54.4,36.5,51.4,35.1,48.4,35.3L48.4,35.3z M53.4,51.1l-0.4,0.3v6c0,1.7-1.3,3-3,3h-2c-1.7,0-3-1.3-3-3v-6
	l-0.4-0.3c-3.4-2.5-4.2-7.2-1.8-10.7c1.4-1.9,3.5-3.1,5.8-3.2H49c4.2,0,7.6,3.4,7.6,7.6C56.6,47.4,55.4,49.7,53.4,51.1L53.4,51.1z"
	/>
<path class="st3" d="M70.6,44.6h-7.3c-0.3,0-0.5,0.2-0.5,0.5s0.2,0.5,0.5,0.5h7.3c0.3,0,0.5-0.2,0.5-0.5
	C71.1,44.9,70.8,44.6,70.6,44.6z"/>
<path class="st3" d="M34.9,44.6h-7.3c-0.3,0-0.5,0.2-0.5,0.5c0,0.3,0.2,0.5,0.5,0.5h7.3c0.3,0,0.5-0.2,0.5-0.5
	C35.4,44.9,35.2,44.6,34.9,44.6z"/>
<path class="st3" d="M49,32.3c0.3,0,0.5-0.2,0.5-0.5v-7.3c0-0.3-0.2-0.5-0.5-0.5s-0.5,0.2-0.5,0.5v7.3C48.5,32.1,48.8,32.3,49,32.3z
	"/>
<path class="st3" d="M64.6,29.6c-0.2-0.2-0.5-0.2-0.7,0c0,0,0,0,0,0l-5.2,5.2c-0.2,0.2-0.2,0.5,0,0.7c0,0,0,0,0,0
	c0.2,0.2,0.5,0.2,0.7,0l5.2-5.2C64.8,30.1,64.8,29.8,64.6,29.6C64.6,29.6,64.6,29.6,64.6,29.6z"/>
<path class="st3" d="M39.4,34.8l-5.2-5.2c-0.2-0.2-0.5-0.2-0.7,0c0,0,0,0,0,0c-0.2,0.2-0.2,0.5,0,0.7c0,0,0,0,0,0l5.2,5.2
	c0.1,0.1,0.2,0.1,0.4,0.1c0.1,0,0.3-0.1,0.3-0.1C39.6,35.3,39.6,35,39.4,34.8C39.4,34.8,39.4,34.8,39.4,34.8z"/>
<path class="st3" d="M48.8,39c-3.3,0-6,2.8-5.9,6.1c0,2.3,1.3,4.4,3.4,5.3V56c0.1,1.4,1.3,2.5,2.8,2.5c1.3-0.1,2.4-1.1,2.5-2.5v-5.7
	c2.9-1.6,4-5.2,2.4-8.1C52.9,40.2,50.9,39.1,48.8,39z"/>
<g class="st4">
	<path class="st5" d="M20.5,124.1v-0.9h-0.9v-0.9h-0.9v-3.6h0.9v-0.9h0.9v-0.9h3.6v0.9H25v0.9h-1.8v-0.9h-1.8v0.9h-0.9v3.6h0.9v0.9
		h1.8v-0.9H25v0.9h-0.9v0.9H20.5z"/>
	<path class="st5" d="M26.3,124.1v-4.5h1.8v0.9H29v0.9h-0.9v2.7H26.3z M29,120.4v-0.9h2.7v0.9H29z"/>
	<path class="st5" d="M33.9,124.1v-0.9H33v-2.7h0.9v-0.9h4.5v0.9h0.9v1.8h-4.5v0.9h3.6v0.9H33.9z M37.6,121.3v-0.9h-2.7v0.9H37.6z
		 M35.3,118.6v-0.9h0.9v-0.9H38v0.9h-0.9v0.9H35.3z"/>
	<path class="st5" d="M41.6,124.1v-0.9h-0.9v-0.9h0.9v-0.9h3.6v-0.9h-3.6v-0.9h4.5v0.9H47v3.6H41.6z M45.2,123.2v-0.9h-2.7v0.9H45.2
		z"/>
	<path class="st5" d="M50.1,124.1v-0.9h-0.9v-2.7h-0.9v-0.9h0.9v-2.7H51v2.7h1.8v0.9H51v2.7h1.8v0.9H50.1z"/>
	<path class="st5" d="M54.1,118.6v-1.8h1.8v1.8H54.1z M54.1,124.1v-4.5h1.8v4.5H54.1z"/>
	<path class="st5" d="M59,124.1v-0.9h-0.9v-0.9h-0.9v-2.7H59v2.7h0.9v0.9h0.9v-0.9h0.9v-2.7h1.8v2.7h-0.9v0.9h-0.9v0.9H59z"/>
	<path class="st5" d="M64.8,118.6v-1.8h1.8v1.8H64.8z M64.8,124.1v-4.5h1.8v4.5H64.8z"/>
	<path class="st5" d="M69.7,124.1v-0.9h-0.9v-2.7h-0.9v-0.9h0.9v-2.7h1.8v2.7h1.8v0.9h-1.8v2.7h1.8v0.9H69.7z"/>
	<path class="st5" d="M74.6,124.1v-0.9h-0.9v-2.7h0.9v-0.9h4.5v0.9h0.9v1.8h-4.5v0.9h3.6v0.9H74.6z M78.3,121.3v-0.9h-2.7v0.9H78.3z
		 M76,118.6v-0.9h0.9v-0.9h1.8v0.9h-0.9v0.9H76z"/>
</g>
</svg>
