<?xml version="1.0" encoding="utf-8"?>
<!-- Generator: Adobe Illustrator 25.3.1, SVG Export Plug-In . SVG Version: 6.00 Build 0)  -->
<svg version="1.1" id="Calque_1" xmlns="http://www.w3.org/2000/svg" xmlns:xlink="http://www.w3.org/1999/xlink" x="0px" y="0px"
	 viewBox="0 0 61.8 61.8" style="enable-background:new 0 0 61.8 61.8;" xml:space="preserve">
<style type="text/css">
	.st0{fill:#575751;}
	.st1{fill:none;stroke:#5BC5F2;stroke-miterlimit:10;}
	.st2{enable-background:new    ;}
</style>
<g id="Calque_2_1_">
	<g id="hobbies">
		<path class="st0" d="M33.3,18.8l4.7,4.6L27.2,34.2h-4.6v-4.6L33.3,18.8z M26.5,32.6l1.9-1.9L26,28.3l-1.9,1.9v0.9h1.5v1.5H26.5z
			 M33.5,21.6c0.1-0.1,0.2-0.3,0.1-0.5c0,0,0,0-0.1-0.1c-0.2-0.2-0.3-0.2-0.5,0l-5.6,5.6c-0.2,0.2-0.2,0.4,0,0.5
			c0.1,0.1,0.3,0.2,0.5,0.1c0,0,0,0,0.1-0.1L33.5,21.6L33.5,21.6z M40.4,20.9L39,22.4l-4.6-4.6l1.5-1.5c0.6-0.6,1.6-0.6,2.2,0
			c0,0,0,0,0,0l2.4,2.4C41.1,19.3,41.1,20.3,40.4,20.9L40.4,20.9z"/>
		<circle class="st1" cx="30.9" cy="30.9" r="30.4"/>
		<g class="st2">
			<path class="st0" d="M20,39.4h1.9c0.5,0,1,0.1,1.4,0.3s0.7,0.5,0.9,0.9s0.3,0.8,0.3,1.3c0,0.5-0.1,0.9-0.3,1.3s-0.5,0.7-0.9,0.9
				s-0.8,0.3-1.4,0.3H20V39.4z M21.9,44c0.5,0,0.9-0.1,1.2-0.3s0.6-0.4,0.8-0.8c0.2-0.3,0.3-0.7,0.3-1.1c0-0.4-0.1-0.8-0.3-1.1
				c-0.2-0.3-0.5-0.6-0.8-0.8s-0.7-0.3-1.2-0.3h-1.6V44H21.9z"/>
			<path class="st0" d="M28.7,42.6h-3.1c0,0.3,0.1,0.5,0.2,0.8s0.3,0.4,0.5,0.5s0.5,0.2,0.8,0.2c0.2,0,0.5,0,0.7-0.1
				c0.2-0.1,0.4-0.2,0.5-0.4l0.2,0.2c-0.2,0.2-0.4,0.3-0.6,0.4s-0.5,0.2-0.8,0.2c-0.4,0-0.7-0.1-1-0.2s-0.5-0.4-0.7-0.7
				s-0.2-0.6-0.2-1c0-0.4,0.1-0.7,0.2-1c0.2-0.3,0.4-0.5,0.6-0.7c0.3-0.2,0.6-0.2,0.9-0.2c0.3,0,0.6,0.1,0.9,0.2s0.5,0.4,0.6,0.7
				C28.7,41.8,28.7,42.2,28.7,42.6L28.7,42.6z M26.3,41.1c-0.2,0.1-0.4,0.3-0.5,0.5c-0.1,0.2-0.2,0.4-0.2,0.7h2.8
				c0-0.3-0.1-0.5-0.2-0.7s-0.3-0.4-0.5-0.5C27.5,41,27.3,41,27,41C26.7,41,26.5,41,26.3,41.1z M27.6,39.3h0.5L27,40.1h-0.4
				L27.6,39.3z"/>
			<path class="st0" d="M29.9,44.2c-0.3-0.1-0.5-0.2-0.6-0.3l0.2-0.3c0.1,0.1,0.3,0.2,0.6,0.3s0.5,0.1,0.7,0.1
				c0.4,0,0.6-0.1,0.8-0.2c0.2-0.1,0.3-0.3,0.3-0.5c0-0.2,0-0.3-0.1-0.4s-0.2-0.2-0.4-0.2c-0.1,0-0.3-0.1-0.6-0.1
				c-0.3-0.1-0.5-0.1-0.7-0.2s-0.3-0.2-0.5-0.3c-0.1-0.1-0.2-0.3-0.2-0.6c0-0.3,0.1-0.5,0.4-0.7c0.2-0.2,0.6-0.3,1-0.3
				c0.2,0,0.5,0,0.7,0.1s0.4,0.2,0.6,0.3l-0.2,0.3c-0.1-0.1-0.3-0.2-0.5-0.2C31.2,41,31,41,30.8,41c-0.3,0-0.6,0.1-0.8,0.2
				c-0.2,0.1-0.3,0.3-0.3,0.5c0,0.2,0,0.3,0.1,0.4s0.2,0.2,0.4,0.2c0.1,0,0.3,0.1,0.6,0.1c0.3,0.1,0.5,0.1,0.7,0.2
				c0.2,0.1,0.3,0.2,0.4,0.3s0.2,0.3,0.2,0.5c0,0.3-0.1,0.5-0.4,0.7c-0.3,0.2-0.6,0.3-1.1,0.3C30.5,44.4,30.2,44.3,29.9,44.2z"/>
			<path class="st0" d="M33.3,44.2c-0.3-0.1-0.5-0.2-0.6-0.3l0.2-0.3c0.1,0.1,0.3,0.2,0.6,0.3c0.2,0.1,0.5,0.1,0.7,0.1
				c0.4,0,0.6-0.1,0.8-0.2s0.3-0.3,0.3-0.5c0-0.2,0-0.3-0.1-0.4s-0.2-0.2-0.4-0.2s-0.3-0.1-0.6-0.1c-0.3-0.1-0.5-0.1-0.7-0.2
				c-0.2-0.1-0.3-0.2-0.5-0.3c-0.1-0.1-0.2-0.3-0.2-0.6c0-0.3,0.1-0.5,0.4-0.7c0.2-0.2,0.6-0.3,1-0.3c0.2,0,0.5,0,0.7,0.1
				s0.4,0.2,0.6,0.3l-0.2,0.3c-0.1-0.1-0.3-0.2-0.5-0.2S34.3,41,34.1,41c-0.3,0-0.6,0.1-0.8,0.2c-0.2,0.1-0.3,0.3-0.3,0.5
				c0,0.2,0,0.3,0.1,0.4c0.1,0.1,0.2,0.2,0.4,0.2s0.3,0.1,0.6,0.1c0.3,0.1,0.5,0.1,0.7,0.2c0.2,0.1,0.3,0.2,0.4,0.3s0.2,0.3,0.2,0.5
				c0,0.3-0.1,0.5-0.4,0.7s-0.6,0.3-1.1,0.3C33.8,44.4,33.5,44.3,33.3,44.2z"/>
			<path class="st0" d="M36.5,39.7c-0.1-0.1-0.1-0.1-0.1-0.2c0-0.1,0-0.1,0.1-0.2c0.1-0.1,0.1-0.1,0.2-0.1s0.1,0,0.2,0.1
				s0.1,0.1,0.1,0.2s0,0.1-0.1,0.2s-0.1,0.1-0.2,0.1S36.5,39.8,36.5,39.7z M36.5,40.7h0.3v3.7h-0.3V40.7z"/>
			<path class="st0" d="M41.2,41.1c0.3,0.3,0.4,0.6,0.4,1.1v2.1h-0.3v-2.1c0-0.4-0.1-0.7-0.3-0.9c-0.2-0.2-0.5-0.3-0.9-0.3
				c-0.4,0-0.8,0.1-1,0.4c-0.2,0.3-0.4,0.6-0.4,1v1.9h-0.3v-3.7h0.3v0.8c0.1-0.3,0.3-0.5,0.6-0.6c0.2-0.1,0.5-0.2,0.9-0.2
				C40.6,40.7,40.9,40.8,41.2,41.1z"/>
		</g>
	</g>
</g>
</svg>
