<?xml version="1.0" encoding="utf-8"?>
<!-- Generator: Adobe Illustrator 25.3.1, SVG Export Plug-In . SVG Version: 6.00 Build 0)  -->
<svg version="1.1" id="Calque_1" xmlns="http://www.w3.org/2000/svg" xmlns:xlink="http://www.w3.org/1999/xlink" x="0px" y="0px"
	 viewBox="0 0 98.1 126.6" style="enable-background:new 0 0 98.1 126.6;" xml:space="preserve">
<style type="text/css">
	.st0{fill:none;stroke:#5BC5F2;stroke-miterlimit:10;}
	.st1{fill:#575751;}
	.st2{fill:none;stroke:#575751;stroke-linecap:round;stroke-linejoin:round;}
	.st3{fill:#FFFFFF;}
	.st4{enable-background:new    ;}
	.st5{fill:#1D1D1B;}
</style>
<circle class="st0" cx="49" cy="49" r="48.5"/>
<path class="st1" d="M46.7,50.8c0.3,0.6,0.8,1.2,1.3,1.6c0.5,0.5,1.2,0.8,1.9,1v0.9c0.1,1.6-0.5,3.2-1.6,4.3
	c-1.1,1.1-2.7,1.7-4.3,1.6c-0.9,0-1.9-0.2-2.7-0.6c-0.8-0.4-1.4-0.9-1.9-1.6c-0.5-0.7-0.9-1.5-1.1-2.3c-0.3-0.9-0.4-1.8-0.4-2.8
	l0.5,0.4l0.8,0.5c0.2,0.2,0.5,0.3,0.7,0.5c0.2,0.1,0.4,0.2,0.6,0.2c0.3,0,0.6-0.2,0.7-0.5c0.2-0.5,0.4-1,0.7-1.4
	c0.2-0.4,0.5-0.7,0.9-1c0.3-0.3,0.7-0.5,1.1-0.6c0.4-0.1,0.9-0.3,1.3-0.3C45.6,50.8,46.1,50.8,46.7,50.8z M56.4,38.6
	c0.4-0.4,1-0.7,1.6-0.7c0.6,0,1.1,0.2,1.5,0.6c0.4,0.4,0.7,0.9,0.7,1.5c0,0.7-0.2,1.3-0.6,1.9c-2.8,5.2-4.7,8.3-5.8,9.4
	c-0.7,0.7-1.7,1.1-2.7,1.1c-1,0-2-0.4-2.7-1.2c-0.7-0.7-1.1-1.7-1.1-2.7c0-1,0.4-2,1.1-2.6L56.4,38.6L56.4,38.6z"/>
<line class="st2" x1="49" y1="107.8" x2="49" y2="77"/>
<path class="st3" d="M52.8,77.2c0-2.1-1.7-3.8-3.8-3.8c-2.1,0-3.8,1.7-3.8,3.8c0,2.1,1.7,3.8,3.8,3.8C51.1,81,52.8,79.3,52.8,77.2
	C52.8,77.2,52.8,77.2,52.8,77.2z"/>
<path class="st1" d="M53.3,77.2c0,2.4-1.9,4.3-4.2,4.3s-4.3-1.9-4.3-4.2c0-2.4,1.9-4.3,4.2-4.3c0,0,0,0,0,0
	C51.4,73,53.3,74.9,53.3,77.2L53.3,77.2z M45.8,77.2c0,1.8,1.4,3.3,3.2,3.3s3.3-1.4,3.3-3.2c0-1.8-1.4-3.3-3.2-3.3c0,0,0,0,0,0
	C47.2,74,45.8,75.5,45.8,77.2L45.8,77.2L45.8,77.2z"/>
<g class="st4">
	<path class="st5" d="M29.3,123.8v-7.3h4.5v0.9h0.9v0.9h0.9v3.6h-0.9v0.9h-0.9v0.9H29.3z M33,122.9V122h0.9v-3.6H33v-0.9h-1.8v5.5
		H33z"/>
	<path class="st5" d="M37.9,123.8v-0.9H37v-2.7h0.9v-0.9h4.5v0.9h0.9v1.8h-4.5v0.9h3.6v0.9H37.9z M41.5,121.1v-0.9h-2.7v0.9H41.5z"
		/>
	<path class="st5" d="M44.6,123.8v-0.9h4.5V122h-3.6v-0.9h-0.9v-0.9h0.9v-0.9h4.5v0.9h-3.6v0.9h3.6v0.9H51v0.9h-0.9v0.9H44.6z"/>
	<path class="st5" d="M52.3,118.4v-1.8h1.8v1.8H52.3z M52.3,123.8v-4.5h1.8v4.5H52.3z"/>
	<path class="st5" d="M56.3,126.6v-0.9h3.6v-1.8h-3.6v-0.9h-0.9v-2.7h0.9v-0.9h5.5v6.4h-0.9v0.9H56.3z M59.9,122.9v-2.7h-2.7v2.7
		H59.9z"/>
	<path class="st5" d="M63,123.8v-4.5h5.5v0.9h0.9v3.6h-1.8v-3.6h-2.7v3.6H63z"/>
</g>
</svg>
