<?xml version="1.0" encoding="utf-8"?>
<!-- Generator: Adobe Illustrator 25.3.1, SVG Export Plug-In . SVG Version: 6.00 Build 0)  -->
<svg version="1.1" id="Calque_1" xmlns="http://www.w3.org/2000/svg" xmlns:xlink="http://www.w3.org/1999/xlink" x="0px" y="0px"
	 viewBox="0 0 209 13.6" style="enable-background:new 0 0 209 13.6;" xml:space="preserve">
<style type="text/css">
	.st0{enable-background:new    ;}
	.st1{fill:#1D1D1B;}
</style>
<g id="Calque_2_1_">
	<g id="expérience">
		<g class="st0">
			<path class="st1" d="M1.1,10.4V1.6h7.6v1.1H3.3v2.2h3.3V6H3.3v3.3h5.5v1.1H1.1z"/>
			<path class="st1" d="M10.2,10.4V9.3h1.1V8.2h1.1V7.1h-1.1V6h-1.1V4.9h2.2V6h1.1v0.5h1.1V6h1.1V4.9h2.2V6h-1.1v1.1h-1.1v1.1h1.1
				v1.1h1.1v1.1h-2.2V9.3h-1.1V8.7h-1.1v0.5h-1.1v1.1H10.2z"/>
			<path class="st1" d="M19.4,13.6V4.9h6.5V6H27v3.3h-1.1v1.1h-4.4v3.3H19.4z M24.8,9.3V6h-3.3v3.3H24.8z"/>
			<path class="st1" d="M29.6,10.4V9.3h-1.1V6h1.1V4.9h5.5V6h1.1v2.2h-5.5v1.1h4.4v1.1H29.6z M34,7.1V6h-3.3v1.1H34z M31.3,3.8V2.7
				h1.1V1.6h2.2v1.1h-1.1v1.1H31.3z"/>
			<path class="st1" d="M37.7,10.4V4.9h2.2V6H41v1.1h-1.1v3.3H37.7z M41,6V4.9h3.3V6H41z"/>
			<path class="st1" d="M45.8,3.8V1.6h2.2v2.2H45.8z M45.8,10.4V4.9h2.2v5.5H45.8z"/>
			<path class="st1" d="M50.5,10.4V9.3h-1.1V6h1.1V4.9H56V6h1.1v2.2h-5.5v1.1H56v1.1H50.5z M54.9,7.1V6h-3.3v1.1H54.9z"/>
			<path class="st1" d="M58.6,10.4V4.9h6.5V6h1.1v4.4h-2.2V6h-3.3v4.4H58.6z"/>
			<path class="st1" d="M68.9,10.4V9.3h-1.1V6h1.1V4.9h5.5V6h1.1v1.1h-2.2V6h-3.3v3.3h3.3V8.2h2.2v1.1h-1.1v1.1H68.9z"/>
			<path class="st1" d="M78,10.4V9.3h-1.1V6H78V4.9h5.5V6h1.1v2.2h-5.5v1.1h4.4v1.1H78z M82.4,7.1V6h-3.3v1.1H82.4z"/>
			<path class="st1" d="M90.3,13.6V4.9h6.5V6h1.1v3.3h-1.1v1.1h-4.4v3.3H90.3z M95.8,9.3V6h-3.3v3.3H95.8z"/>
			<path class="st1" d="M99.5,10.4V4.9h2.2V6h1.1v1.1h-1.1v3.3H99.5z M102.7,6V4.9h3.3V6H102.7z"/>
			<path class="st1" d="M108.6,10.4V9.3h-1.1V6h1.1V4.9h5.5V6h1.1v3.3h-1.1v1.1H108.6z M113,9.3V6h-3.3v3.3H113z"/>
			<path class="st1" d="M117.8,10.4V6h-1.1V4.9h1.1V2.7h1.1V1.6h3.3v1.1h-2.2v2.2h2.2V6h-2.2v4.4H117.8z"/>
			<path class="st1" d="M124.7,10.4V9.3h-1.1V6h1.1V4.9h5.5V6h1.1v2.2h-5.5v1.1h4.4v1.1H124.7z M129.1,7.1V6h-3.3v1.1H129.1z"/>
			<path class="st1" d="M132.8,10.4V9.3h5.5V8.2h-4.4V7.1h-1.1V6h1.1V4.9h5.5V6H135v1.1h4.4v1.1h1.1v1.1h-1.1v1.1H132.8z"/>
			<path class="st1" d="M141.9,10.4V9.3h5.5V8.2H143V7.1h-1.1V6h1.1V4.9h5.5V6h-4.4v1.1h4.4v1.1h1.1v1.1h-1.1v1.1H141.9z"/>
			<path class="st1" d="M151.1,3.8V1.6h2.2v2.2H151.1z M151.1,10.4V4.9h2.2v5.5H151.1z"/>
			<path class="st1" d="M155.9,10.4V9.3h-1.1V6h1.1V4.9h5.5V6h1.1v3.3h-1.1v1.1H155.9z M160.3,9.3V6H157v3.3H160.3z"/>
			<path class="st1" d="M164,10.4V4.9h6.5V6h1.1v4.4h-2.2V6h-3.3v4.4H164z"/>
			<path class="st1" d="M173.1,10.4V4.9h6.5V6h1.1v4.4h-2.2V6h-3.3v4.4H173.1z"/>
			<path class="st1" d="M183.3,10.4V9.3h-1.1V6h1.1V4.9h5.5V6h1.1v2.2h-5.5v1.1h4.4v1.1H183.3z M187.7,7.1V6h-3.3v1.1H187.7z"/>
			<path class="st1" d="M192.5,10.4V9.3h-1.1V1.6h2.2v7.6h1.1v1.1H192.5z"/>
			<path class="st1" d="M197.3,10.4V9.3h-1.1V1.6h2.2v7.6h1.1v1.1H197.3z"/>
			<path class="st1" d="M202.1,10.4V9.3H201V6h1.1V4.9h5.5V6h1.1v2.2h-5.5v1.1h4.4v1.1H202.1z M206.4,7.1V6h-3.3v1.1H206.4z"/>
		</g>
	</g>
</g>
</svg>
