<?xml version="1.0" encoding="utf-8"?>
<!-- Generator: Adobe Illustrator 25.3.1, SVG Export Plug-In . SVG Version: 6.00 Build 0)  -->
<svg version="1.1" id="Calque_1" xmlns="http://www.w3.org/2000/svg" xmlns:xlink="http://www.w3.org/1999/xlink" x="0px" y="0px"
	 viewBox="0 0 73.6 13.6" style="enable-background:new 0 0 73.6 13.6;" xml:space="preserve">
<style type="text/css">
	.st0{enable-background:new    ;}
	.st1{fill:#1D1D1B;}
</style>
<g id="Calque_2_1_">
	<g id="formation">
		<g class="st0">
			<path class="st1" d="M1.1,10.4V1.6h7.6v1.1H3.3v2.2h3.3V6H3.3v4.4H1.1z"/>
			<path class="st1" d="M11.3,10.4V9.3h-1.1V6h1.1V4.9h5.5V6h1.1v3.3h-1.1v1.1H11.3z M15.7,9.3V6h-3.3v3.3H15.7z"/>
			<path class="st1" d="M19.4,10.4V4.9h2.2V6h1.1v1.1h-1.1v3.3H19.4z M22.7,6V4.9h3.3V6H22.7z"/>
			<path class="st1" d="M27.5,10.4V4.9H34V6h1.1v4.4h-2.2V6h-1.1v4.4h-1.1V6h-1.1v4.4H27.5z"/>
			<path class="st1" d="M37.7,10.4V9.3h-1.1V8.2h1.1V7.1h4.4V6h-4.4V4.9h5.5V6h1.1v4.4H37.7z M42.1,9.3V8.2h-3.3v1.1H42.1z"/>
			<path class="st1" d="M47.9,10.4V9.3h-1.1V6h-1.1V4.9h1.1V1.6H49v3.3h2.2V6H49v3.3h2.2v1.1H47.9z"/>
			<path class="st1" d="M52.7,3.8V1.6h2.2v2.2H52.7z M52.7,10.4V4.9h2.2v5.5H52.7z"/>
			<path class="st1" d="M57.5,10.4V9.3h-1.1V6h1.1V4.9H63V6h1.1v3.3H63v1.1H57.5z M61.9,9.3V6h-3.3v3.3H61.9z"/>
			<path class="st1" d="M65.6,10.4V4.9h6.5V6h1.1v4.4H71V6h-3.3v4.4H65.6z"/>
		</g>
	</g>
</g>
</svg>
