<?xml version="1.0" encoding="utf-8"?>
<!-- Generator: Adobe Illustrator 25.3.1, SVG Export Plug-In . SVG Version: 6.00 Build 0)  -->
<svg version="1.1" id="Calque_1" xmlns="http://www.w3.org/2000/svg" xmlns:xlink="http://www.w3.org/1999/xlink" x="0px" y="0px"
	 viewBox="0 0 57.1 57.1" style="enable-background:new 0 0 57.1 57.1;" xml:space="preserve">
<style type="text/css">
	.st0{fill:none;stroke:#EFEFEF;stroke-miterlimit:10;}
	.st1{fill:#83CFF4;}
	.st2{enable-background:new    ;}
	.st3{fill:#575751;}
</style>
<g id="Calque_2_1_">
	<g id="langues">
		<circle class="st0" cx="28.6" cy="28.6" r="28.1"/>
		<path class="st1" d="M53,29.9H40.2c-0.1,5.9-4.5,10.9-10.3,11.6v11.7C42.4,52.5,52.3,42.4,53,29.9z"/>
		<path class="st1" d="M39.9,27.2H53C52.3,14.7,42.4,4.7,29.9,3.8v14.2C34.8,18.7,38.8,22.3,39.9,27.2z"/>
		<path class="st1" d="M27.1,3.8C14.4,4.4,4.2,14.5,3.5,27.2h13.3c1.1-4.9,5.3-8.6,10.3-9.1L27.1,3.8z"/>
		<path class="st1" d="M16.5,29.9h-13c0.7,12.7,10.9,22.8,23.6,23.4V41.6C21.1,40.9,16.6,35.9,16.5,29.9z"/>
		<g class="st2">
			<path class="st3" d="M24.5,27.5v1.5h2.6v1h-2.6v2h-1.3v-5.6h4.2v1H24.5z"/>
			<path class="st3" d="M31.9,32l-1.1-1.6h-0.1h-1.1V32h-1.3v-5.6h2.4c0.5,0,0.9,0.1,1.3,0.2c0.4,0.2,0.6,0.4,0.8,0.7
				c0.2,0.3,0.3,0.7,0.3,1.1s-0.1,0.8-0.3,1.1c-0.2,0.3-0.5,0.5-0.9,0.7l1.3,1.8H31.9z M31.5,27.7c-0.2-0.2-0.5-0.3-0.9-0.3h-1.1v2
				h1.1c0.4,0,0.7-0.1,0.9-0.3c0.2-0.2,0.3-0.4,0.3-0.7C31.8,28.1,31.7,27.9,31.5,27.7z"/>
		</g>
	</g>
</g>
</svg>
