<svg xmlns="http://www.w3.org/2000/svg" viewBox="0 0 10 76.47"><defs><style>.cls-1{fill:#898981;}.cls-2{fill:#b5b5ac;}</style></defs><g id="Calque_2" data-name="Calque 2"><g id="formation"><rect class="cls-1" x="1.46" width="7.07" height="7.07"/><path class="cls-2" d="M5,76.47a1,1,0,0,1-1-1V61.6a1,1,0,1,1,2,0V75.47A1,1,0,0,1,5,76.47Z"/><path class="cls-1" d="M5,49.38a1,1,0,0,1-1-1V10.51a1,1,0,0,1,2,0V48.38A1,1,0,0,1,5,49.38Z"/><polygon class="cls-2" points="5 51.6 10 58.36 0 58.36 5 51.6"/></g></g></svg>