<?xml version="1.0" encoding="utf-8"?>
<!-- Generator: Adobe Illustrator 25.4.0, SVG Export Plug-In . SVG Version: 6.00 Build 0)  -->
<svg version="1.1" id="Calque_1" xmlns="http://www.w3.org/2000/svg" xmlns:xlink="http://www.w3.org/1999/xlink" x="0px" y="0px"
	 viewBox="0 0 58.6 13.6" style="enable-background:new 0 0 58.6 13.6;" xml:space="preserve">
<style type="text/css">
	.st0{enable-background:new    ;}
	.st1{fill:#83CFF4;}
</style>
<g id="Calque_2_1_">
	<g id="hobbies">
		<g class="st0">
			<path class="st1" d="M1.1,10.4V1.6h2.2v3.3h3.3V1.6h2.2v8.7H6.5V6H3.3v4.4H1.1z"/>
			<path class="st1" d="M11.3,10.4V9.3h-1.1V6h1.1V4.9h5.5V6h1.1v3.3h-1.1v1.1C16.8,10.4,11.3,10.4,11.3,10.4z M15.7,9.3V6h-3.3v3.3
				H15.7z"/>
			<path class="st1" d="M19.4,10.4V1.6h2.2v3.3H26V6h1v3.3h-1.1v1.1C25.9,10.4,19.4,10.4,19.4,10.4z M24.8,9.3V6h-3.3v3.3H24.8z"/>
			<path class="st1" d="M28.5,10.4V1.6h2.2v3.3h4.4V6h1.1v3.3h-1.1v1.1C35.1,10.4,28.5,10.4,28.5,10.4z M34,9.3V6h-3.3v3.3H34z"/>
			<path class="st1" d="M37.7,3.8V1.6h2.2v2.2C39.9,3.8,37.7,3.8,37.7,3.8z M37.7,10.4V4.9h2.2v5.5H37.7z"/>
			<path class="st1" d="M42.5,10.4V9.3h-1.1V6h1.1V4.9H48V6h1v2.2h-5.5v1.1h4.4v1.1C47.9,10.4,42.5,10.4,42.5,10.4z M46.9,7.1V6
				h-3.3v1.1H46.9z"/>
			<path class="st1" d="M50.5,10.4V9.3H56V8.2h-4.4V7.1h-1.1V6h1.1V4.9h5.5V6h-4.4v1.1h4.4v1.1h1.1v1.1h-1.1v1.1
				C57.1,10.4,50.5,10.4,50.5,10.4z"/>
		</g>
	</g>
</g>
</svg>
