<?xml version="1.0" encoding="utf-8"?>
<!-- Generator: Adobe Illustrator 25.3.1, SVG Export Plug-In . SVG Version: 6.00 Build 0)  -->
<svg version="1.1" id="Calque_1" xmlns="http://www.w3.org/2000/svg" xmlns:xlink="http://www.w3.org/1999/xlink" x="0px" y="0px"
	 viewBox="0 0 63 13.6" style="enable-background:new 0 0 63 13.6;" xml:space="preserve">
<style type="text/css">
	.st0{enable-background:new    ;}
	.st1{fill:#1D1D1B;}
</style>
<g id="Calque_2_1_">
	<g id="langues">
		<g class="st0">
			<path class="st1" d="M1.1,10.4V1.6h2.2v7.6h4.4v1.1H1.1z"/>
			<path class="st1" d="M10.2,10.4V9.3H9.1V8.2h1.1V7.1h4.4V6h-4.4V4.9h5.5V6h1.1v4.4H10.2z M14.6,9.3V8.2h-3.3v1.1H14.6z"/>
			<path class="st1" d="M18.3,10.4V4.9h6.5V6h1.1v4.4h-2.2V6h-3.3v4.4H18.3z"/>
			<path class="st1" d="M28.5,13.6v-1.1h4.4v-2.2h-4.4V9.3h-1.1V6h1.1V4.9h6.5v7.6H34v1.1H28.5z M32.9,9.3V6h-3.3v3.3H32.9z"/>
			<path class="st1" d="M37.7,10.4V9.3h-1.1V4.9h2.2v4.4h3.3V4.9h2.2v4.4h-1.1v1.1H37.7z"/>
			<path class="st1" d="M46.8,10.4V9.3h-1.1V6h1.1V4.9h5.5V6h1.1v2.2h-5.5v1.1h4.4v1.1H46.8z M51.2,7.1V6h-3.3v1.1H51.2z"/>
			<path class="st1" d="M54.9,10.4V9.3h5.5V8.2H56V7.1h-1.1V6H56V4.9h5.5V6h-4.4v1.1h4.4v1.1h1.1v1.1h-1.1v1.1H54.9z"/>
		</g>
	</g>
</g>
</svg>
