<?xml version="1.0" encoding="utf-8"?>
<!-- Generator: Adobe Illustrator 25.3.1, SVG Export Plug-In . SVG Version: 6.00 Build 0)  -->
<svg version="1.1" id="Calque_1" xmlns="http://www.w3.org/2000/svg" xmlns:xlink="http://www.w3.org/1999/xlink" x="0px" y="0px"
	 viewBox="0 0 61.8 61.8" style="enable-background:new 0 0 61.8 61.8;" xml:space="preserve">
<style type="text/css">
	.st0{fill:none;stroke:#5BC5F2;stroke-miterlimit:10;}
	.st1{fill:#575751;}
	.st2{enable-background:new    ;}
</style>
<g id="Calque_2_1_">
	<g id="hobbies">
		<circle class="st0" cx="30.9" cy="30.9" r="30.4"/>
		<path class="st1" d="M39.8,20.4c0.3,0.1,0.5,0.3,0.7,0.5c0.3,0.4,0.4,1,0.2,1.5l-3.3,10.8c-0.2,0.5-0.5,1-0.9,1.3
			c-0.4,0.3-0.9,0.5-1.5,0.5h-11c-0.6,0-1.3-0.2-1.8-0.6c-0.5-0.4-1-0.9-1.2-1.6c-0.2-0.5-0.2-1,0-1.5c0-0.1,0-0.2,0-0.3
			c0-0.2,0-0.3,0-0.4c0-0.1,0-0.2,0-0.3c0-0.1,0-0.2,0-0.2c0-0.1,0.1-0.2,0.1-0.2c0.1-0.1,0.1-0.2,0.2-0.3c0.1-0.1,0.1-0.2,0.2-0.3
			c0.2-0.3,0.4-0.7,0.5-1.1c0.1-0.4,0.3-0.7,0.4-1.1c0-0.1,0-0.2,0-0.4c0-0.1,0-0.2,0-0.3c0-0.1,0.1-0.2,0.2-0.3
			c0.1-0.1,0.1-0.2,0.2-0.3c0.2-0.4,0.4-0.7,0.5-1.1c0.1-0.3,0.2-0.7,0.3-1.1c0-0.1,0-0.3,0-0.4c0-0.1,0-0.2,0-0.3
			c0.1-0.1,0.1-0.3,0.3-0.4l0.3-0.3c0.2-0.3,0.4-0.6,0.5-1c0.1-0.4,0.2-0.8,0.2-1.2c0-0.1,0-0.2,0-0.3c0-0.1,0-0.2,0-0.3
			c0-0.1,0.1-0.1,0.1-0.2l0.2-0.3c0.1-0.1,0.1-0.2,0.2-0.2c0.1-0.1,0.1-0.2,0.2-0.4c0.1-0.1,0.1-0.3,0.2-0.4c0-0.1,0.1-0.3,0.2-0.4
			c0.1-0.1,0.1-0.3,0.2-0.4c0.1-0.1,0.2-0.2,0.3-0.3c0.1-0.1,0.3-0.1,0.4-0.1c0.2,0,0.4,0,0.6,0.1l0,0c0.2-0.1,0.4-0.1,0.6-0.1h9.1
			c0.5,0,1.1,0.2,1.4,0.7c0.3,0.5,0.4,1.1,0.2,1.6l-3.3,10.8c-0.2,0.7-0.4,1.3-0.8,1.8c-0.4,0.3-1,0.5-1.5,0.4H22.8
			c-0.2,0-0.3,0.1-0.5,0.2c-0.1,0.2-0.1,0.4,0,0.5c0.2,0.6,0.8,0.8,1.7,0.8h11c0.2,0,0.5-0.1,0.7-0.2c0.2-0.1,0.3-0.3,0.4-0.5
			l3.6-11.8C39.8,20.9,39.8,20.7,39.8,20.4L39.8,20.4z M26.8,24c0,0.1,0,0.2,0,0.3c0.1,0.1,0.1,0.1,0.2,0.1h7.2c0.1,0,0.2,0,0.3-0.1
			c0.1-0.1,0.2-0.2,0.2-0.3l0.2-0.8c0-0.1,0-0.2,0-0.3c-0.1-0.1-0.1-0.1-0.2-0.1h-7.2c-0.1,0-0.2,0-0.3,0.1
			c-0.1,0.1-0.2,0.2-0.2,0.3L26.8,24z M27.8,20.9c0,0.1,0,0.2,0,0.3c0.1,0.1,0.1,0.1,0.2,0.1h7.2c0.1,0,0.2,0,0.3-0.1
			c0.1-0.1,0.2-0.2,0.2-0.3l0.2-0.8c0-0.1,0-0.2,0-0.3c-0.1-0.1-0.1-0.1-0.2-0.1h-7.3c-0.1,0-0.2,0-0.3,0.1
			c-0.1,0.1-0.2,0.2-0.2,0.3L27.8,20.9z"/>
		<g class="st2">
			<path class="st1" d="M14.9,44.6l-1.2-1.6c-0.2,0-0.3,0-0.5,0h-1.4v1.6h-0.4v-4.9h1.8c0.6,0,1.1,0.1,1.4,0.4
				c0.4,0.3,0.5,0.7,0.5,1.2c0,0.4-0.1,0.7-0.3,1c-0.2,0.3-0.5,0.4-0.9,0.6l1.2,1.7H14.9z M13.3,42.6c0.5,0,0.9-0.1,1.2-0.3
				c0.3-0.2,0.4-0.6,0.4-1s-0.1-0.8-0.4-1c-0.3-0.2-0.7-0.3-1.2-0.3h-1.4v2.7H13.3z"/>
			<path class="st1" d="M16.9,44.3c-0.3-0.2-0.5-0.4-0.7-0.7s-0.2-0.6-0.2-1s0.1-0.7,0.2-1s0.4-0.5,0.7-0.7c0.3-0.2,0.6-0.2,0.9-0.2
				s0.7,0.1,0.9,0.2c0.3,0.2,0.5,0.4,0.7,0.7s0.2,0.6,0.2,1s-0.1,0.7-0.2,1s-0.4,0.5-0.7,0.7s-0.6,0.2-0.9,0.2S17.2,44.5,16.9,44.3z
				 M18.6,44.1c0.2-0.1,0.4-0.3,0.5-0.5c0.1-0.2,0.2-0.5,0.2-0.8s-0.1-0.6-0.2-0.8c-0.1-0.2-0.3-0.4-0.5-0.5s-0.5-0.2-0.8-0.2
				c-0.3,0-0.5,0.1-0.8,0.2s-0.4,0.3-0.5,0.5s-0.2,0.5-0.2,0.8s0.1,0.6,0.2,0.8s0.3,0.4,0.5,0.5c0.2,0.1,0.5,0.2,0.8,0.2
				C18.2,44.3,18.4,44.2,18.6,44.1z"/>
			<path class="st1" d="M26.4,41.3c0.3,0.3,0.4,0.6,0.4,1.1v2.1h-0.4v-2.1c0-0.4-0.1-0.7-0.3-0.9c-0.2-0.2-0.5-0.3-0.8-0.3
				c-0.4,0-0.7,0.1-1,0.4c-0.2,0.3-0.4,0.6-0.4,1v1.9h-0.4v-2.1c0-0.4-0.1-0.7-0.3-0.9s-0.5-0.3-0.8-0.3c-0.4,0-0.7,0.1-1,0.4
				c-0.2,0.3-0.4,0.6-0.4,1v1.9h-0.3v-3.7h0.3v0.8c0.1-0.3,0.3-0.5,0.5-0.6c0.2-0.1,0.5-0.2,0.9-0.2c0.3,0,0.6,0.1,0.8,0.2
				c0.2,0.1,0.4,0.4,0.5,0.7c0.1-0.3,0.3-0.5,0.6-0.6c0.3-0.2,0.6-0.2,0.9-0.2C25.8,40.9,26.2,41,26.4,41.3z"/>
			<path class="st1" d="M30.5,41.2c0.2,0.2,0.4,0.6,0.4,1v2.3h-0.3v-0.7c-0.1,0.2-0.3,0.4-0.5,0.5c-0.2,0.1-0.5,0.2-0.8,0.2
				c-0.4,0-0.7-0.1-1-0.3c-0.2-0.2-0.4-0.4-0.4-0.8c0-0.3,0.1-0.5,0.3-0.7c0.2-0.2,0.6-0.3,1-0.3h1.3v-0.3c0-0.3-0.1-0.6-0.3-0.8
				c-0.2-0.2-0.5-0.3-0.8-0.3c-0.2,0-0.5,0-0.7,0.1s-0.4,0.2-0.6,0.3L28,41.4c0.2-0.2,0.4-0.3,0.7-0.4c0.3-0.1,0.5-0.1,0.8-0.1
				C29.9,40.9,30.3,41,30.5,41.2z M30,44.1c0.2-0.1,0.4-0.3,0.5-0.6v-0.7h-1.2c-0.4,0-0.6,0.1-0.8,0.2c-0.2,0.1-0.2,0.3-0.2,0.5
				c0,0.2,0.1,0.4,0.3,0.6s0.4,0.2,0.7,0.2C29.6,44.3,29.8,44.2,30,44.1z"/>
			<path class="st1" d="M35.2,41.3c0.3,0.3,0.4,0.6,0.4,1.1v2.1h-0.3v-2.1c0-0.4-0.1-0.7-0.3-0.9c-0.2-0.2-0.5-0.3-0.9-0.3
				c-0.4,0-0.8,0.1-1,0.4c-0.2,0.3-0.4,0.6-0.4,1v1.9h-0.3v-3.7h0.3v0.8c0.1-0.3,0.3-0.5,0.6-0.6c0.2-0.1,0.5-0.2,0.9-0.2
				C34.6,40.9,34.9,41,35.2,41.3z"/>
			<path class="st1" d="M37.1,44.4c-0.3-0.1-0.5-0.2-0.6-0.3l0.2-0.3c0.1,0.1,0.3,0.2,0.6,0.3c0.2,0.1,0.5,0.1,0.7,0.1
				c0.4,0,0.6-0.1,0.8-0.2s0.3-0.3,0.3-0.5c0-0.2,0-0.3-0.1-0.4s-0.2-0.2-0.4-0.2s-0.3-0.1-0.6-0.1c-0.3-0.1-0.5-0.1-0.7-0.2
				c-0.2-0.1-0.3-0.2-0.5-0.3c-0.1-0.1-0.2-0.3-0.2-0.6c0-0.3,0.1-0.5,0.4-0.7c0.2-0.2,0.6-0.3,1-0.3c0.2,0,0.5,0,0.7,0.1
				s0.4,0.2,0.6,0.3l-0.2,0.3c-0.1-0.1-0.3-0.2-0.5-0.2s-0.4-0.1-0.6-0.1c-0.3,0-0.6,0.1-0.8,0.2c-0.2,0.1-0.3,0.3-0.3,0.5
				c0,0.2,0,0.3,0.1,0.4c0.1,0.1,0.2,0.2,0.4,0.2s0.3,0.1,0.6,0.1c0.3,0.1,0.5,0.1,0.7,0.2c0.2,0.1,0.3,0.2,0.4,0.3s0.2,0.3,0.2,0.5
				c0,0.3-0.1,0.5-0.4,0.7s-0.6,0.3-1.1,0.3C37.7,44.6,37.4,44.5,37.1,44.4z"/>
			<path class="st1" d="M42.6,44.4c-0.3-0.1-0.6-0.3-0.8-0.5l0.2-0.3c0.2,0.2,0.4,0.3,0.7,0.4c0.3,0.1,0.6,0.2,0.9,0.2
				c0.5,0,0.8-0.1,1.1-0.3s0.4-0.4,0.4-0.7c0-0.2-0.1-0.4-0.2-0.5s-0.3-0.2-0.5-0.3c-0.2-0.1-0.4-0.1-0.8-0.2
				c-0.4-0.1-0.6-0.2-0.9-0.3s-0.4-0.2-0.6-0.4s-0.2-0.4-0.2-0.7c0-0.2,0.1-0.5,0.2-0.7s0.3-0.4,0.6-0.5c0.3-0.1,0.6-0.2,1-0.2
				c0.3,0,0.5,0,0.8,0.1c0.3,0.1,0.5,0.2,0.7,0.3L45,40.3c-0.2-0.1-0.4-0.2-0.6-0.3c-0.2-0.1-0.5-0.1-0.7-0.1c-0.5,0-0.8,0.1-1,0.3
				c-0.2,0.2-0.3,0.4-0.3,0.7c0,0.2,0.1,0.4,0.2,0.5c0.1,0.1,0.3,0.2,0.5,0.3c0.2,0.1,0.4,0.1,0.8,0.2c0.4,0.1,0.6,0.2,0.9,0.3
				s0.4,0.2,0.5,0.4c0.2,0.2,0.2,0.4,0.2,0.7c0,0.2-0.1,0.5-0.2,0.7c-0.1,0.2-0.3,0.4-0.6,0.5c-0.3,0.1-0.6,0.2-1,0.2
				C43.2,44.6,42.9,44.5,42.6,44.4z"/>
			<path class="st1" d="M46.9,40v2.1h2.6v0.3h-2.6v2.2h-0.4v-4.9h3.3V40H46.9z"/>
		</g>
	</g>
</g>
</svg>
