<?xml version="1.0" encoding="utf-8"?>
<!-- Generator: Adobe Illustrator 25.3.1, SVG Export Plug-In . SVG Version: 6.00 Build 0)  -->
<svg version="1.1" id="Calque_1" xmlns="http://www.w3.org/2000/svg" xmlns:xlink="http://www.w3.org/1999/xlink" x="0px" y="0px"
	 viewBox="0 0 61.8 61.8" style="enable-background:new 0 0 61.8 61.8;" xml:space="preserve">
<style type="text/css">
	.st0{fill:#575751;}
	.st1{fill:none;stroke:#5BC5F2;stroke-miterlimit:10;}
	.st2{enable-background:new    ;}
</style>
<g id="Calque_2_1_">
	<g id="hobbies">
		<path class="st0" d="M40.5,16.7v14c0,0.4-0.2,0.8-0.5,1.1c-0.3,0.3-0.7,0.6-1.1,0.7c-0.4,0.2-0.8,0.3-1.3,0.4
			c-0.4,0.1-0.8,0.1-1.2,0.1c-0.4,0-0.8,0-1.2-0.1c-0.4-0.1-0.9-0.2-1.3-0.4c-0.4-0.2-0.8-0.4-1.1-0.8c-0.3-0.3-0.4-0.7-0.4-1.1
			c0-0.4,0.1-0.8,0.4-1.1c0.3-0.3,0.7-0.6,1.1-0.7c0.4-0.2,0.8-0.3,1.3-0.4c0.4-0.1,0.8-0.1,1.2-0.1c0.8,0,1.6,0.2,2.4,0.5v-6.7
			l-9.6,3v8.8c0,0.4-0.2,0.8-0.4,1.1c-0.3,0.3-0.7,0.6-1.1,0.8c-0.4,0.2-0.8,0.3-1.3,0.4c-0.4,0.1-0.8,0.1-1.2,0.1
			c-0.4,0-0.8,0-1.2-0.1c-0.4-0.1-0.9-0.2-1.3-0.4c-0.4-0.2-0.8-0.4-1.1-0.8c-0.3-0.3-0.4-0.7-0.4-1.1c0-0.4,0.2-0.8,0.4-1.1
			c0.3-0.3,0.7-0.6,1.1-0.8c0.4-0.2,0.8-0.3,1.3-0.4c1.2-0.3,2.5-0.1,3.6,0.4v-12c0-0.3,0.1-0.5,0.2-0.7c0.2-0.2,0.4-0.4,0.6-0.4
			l10.4-3.2c0.1,0,0.2-0.1,0.3-0.1C39.9,15.6,40.5,16.1,40.5,16.7L40.5,16.7z"/>
		<circle class="st1" cx="30.9" cy="30.9" r="30.4"/>
		<g class="st2">
			<path class="st0" d="M18,40h-1.8v-0.3h3.9V40h-1.8v4.6H18V40z"/>
		</g>
		<g class="st2">
			<path class="st0" d="M21.6,41.1c0.2-0.1,0.5-0.2,0.9-0.2v0.3l-0.1,0c-0.4,0-0.7,0.1-1,0.4c-0.2,0.3-0.3,0.6-0.3,1.1v1.9h-0.3
				v-3.7h0.3v0.8C21.2,41.4,21.4,41.2,21.6,41.1z"/>
		</g>
		<g class="st2">
			<path class="st0" d="M23.4,39.9c-0.1-0.1-0.1-0.1-0.1-0.2c0-0.1,0-0.1,0.1-0.2c0.1-0.1,0.1-0.1,0.2-0.1c0.1,0,0.1,0,0.2,0.1
				c0.1,0.1,0.1,0.1,0.1,0.2s0,0.1-0.1,0.2C23.8,40,23.7,40,23.6,40C23.5,40,23.5,40,23.4,39.9z M23.4,40.9h0.3v3.7h-0.3V40.9z"/>
			<path class="st0" d="M28,41.1c0.3,0.2,0.5,0.4,0.6,0.7s0.2,0.6,0.2,1s-0.1,0.7-0.2,1s-0.4,0.5-0.6,0.7c-0.3,0.2-0.6,0.2-0.9,0.2
				c-0.3,0-0.6-0.1-0.9-0.2c-0.3-0.2-0.5-0.4-0.6-0.6v2.2h-0.3v-5h0.3v0.9c0.1-0.3,0.3-0.5,0.6-0.7s0.6-0.2,0.9-0.2
				C27.4,40.9,27.8,40.9,28,41.1z M27.8,44.1c0.2-0.1,0.4-0.3,0.5-0.5s0.2-0.5,0.2-0.8s-0.1-0.6-0.2-0.8s-0.3-0.4-0.5-0.5
				s-0.5-0.2-0.8-0.2c-0.3,0-0.5,0.1-0.8,0.2c-0.2,0.1-0.4,0.3-0.5,0.5s-0.2,0.5-0.2,0.8s0.1,0.6,0.2,0.8s0.3,0.4,0.5,0.5
				c0.2,0.1,0.5,0.2,0.8,0.2C27.4,44.3,27.6,44.2,27.8,44.1z"/>
			<path class="st0" d="M35.9,39.6v4.9h-0.4v-2.3h-3.3v2.3h-0.4v-4.9h0.4v2.3h3.3v-2.3H35.9z"/>
			<path class="st0" d="M38,44.3c-0.3-0.2-0.5-0.4-0.7-0.7c-0.2-0.3-0.2-0.6-0.2-1s0.1-0.7,0.2-1c0.2-0.3,0.4-0.5,0.7-0.7
				c0.3-0.2,0.6-0.2,0.9-0.2c0.3,0,0.7,0.1,0.9,0.2c0.3,0.2,0.5,0.4,0.7,0.7c0.2,0.3,0.2,0.6,0.2,1s-0.1,0.7-0.2,1
				c-0.2,0.3-0.4,0.5-0.7,0.7c-0.3,0.2-0.6,0.2-0.9,0.2C38.6,44.6,38.3,44.5,38,44.3z M39.7,44.1c0.2-0.1,0.4-0.3,0.5-0.5
				s0.2-0.5,0.2-0.8s-0.1-0.6-0.2-0.8s-0.3-0.4-0.5-0.5s-0.5-0.2-0.8-0.2s-0.5,0.1-0.8,0.2s-0.4,0.3-0.5,0.5
				c-0.1,0.2-0.2,0.5-0.2,0.8s0.1,0.6,0.2,0.8c0.1,0.2,0.3,0.4,0.5,0.5c0.2,0.1,0.5,0.2,0.8,0.2S39.4,44.2,39.7,44.1z"/>
			<path class="st0" d="M44.6,41.1c0.3,0.2,0.5,0.4,0.6,0.7s0.2,0.6,0.2,1s-0.1,0.7-0.2,1s-0.4,0.5-0.6,0.7
				c-0.3,0.2-0.6,0.2-0.9,0.2c-0.3,0-0.6-0.1-0.9-0.2c-0.3-0.2-0.5-0.4-0.6-0.6v2.2h-0.3v-5h0.3v0.9c0.1-0.3,0.3-0.5,0.6-0.7
				s0.6-0.2,0.9-0.2C44,40.9,44.3,40.9,44.6,41.1z M44.4,44.1c0.2-0.1,0.4-0.3,0.5-0.5c0.1-0.2,0.2-0.5,0.2-0.8s-0.1-0.6-0.2-0.8
				c-0.1-0.2-0.3-0.4-0.5-0.5c-0.2-0.1-0.5-0.2-0.8-0.2s-0.5,0.1-0.8,0.2c-0.2,0.1-0.4,0.3-0.5,0.5c-0.1,0.2-0.2,0.5-0.2,0.8
				s0.1,0.6,0.2,0.8c0.1,0.2,0.3,0.4,0.5,0.5c0.2,0.1,0.5,0.2,0.8,0.2S44.2,44.2,44.4,44.1z"/>
		</g>
	</g>
</g>
</svg>
