<?xml version="1.0" encoding="utf-8"?>
<!-- Generator: Adobe Illustrator 25.3.1, SVG Export Plug-In . SVG Version: 6.00 Build 0)  -->
<svg version="1.1" id="Calque_1" xmlns="http://www.w3.org/2000/svg" xmlns:xlink="http://www.w3.org/1999/xlink" x="0px" y="0px"
	 viewBox="0 0 61.8 61.8" style="enable-background:new 0 0 61.8 61.8;" xml:space="preserve">
<style type="text/css">
	.st0{fill:none;stroke:#5BC5F2;stroke-miterlimit:10;}
	.st1{fill:#575751;}
	.st2{enable-background:new    ;}
</style>
<g id="Calque_2_1_">
	<g id="hobbies">
		<circle class="st0" cx="30.9" cy="30.9" r="30.4"/>
		<path class="st1" d="M37.9,20.1c1.4,0,2.5,1.1,2.5,2.5v8.9c0,1.4-1.1,2.6-2.5,2.6h-14c-1.4,0-2.6-1.2-2.5-2.6v-8.9
			c0-1.4,1.1-2.5,2.5-2.5h2.2l0.5-1.4c0.1-0.3,0.4-0.6,0.7-0.8c0.3-0.2,0.6-0.3,1-0.4h5.1c0.4,0,0.7,0.1,1,0.4
			c0.3,0.2,0.6,0.5,0.7,0.8l0.5,1.4L37.9,20.1z M27.7,30.3c1.9,1.6,4.7,1.3,6.3-0.6c1.4-1.7,1.4-4.1,0-5.7c-1.8-1.7-4.7-1.5-6.3,0.3
			C26.1,26,26.1,28.6,27.7,30.3L27.7,30.3z M28.9,25.1c1.1-1.1,2.9-1.1,4.1,0c1.1,1.1,1.1,2.9,0,4.1c-1.1,1.1-2.9,1.1-4.1,0
			c-0.5-0.5-0.8-1.3-0.8-2.1C28,26.4,28.3,25.7,28.9,25.1z"/>
		<g class="st2">
			<path class="st1" d="M23.1,39.9c0.4,0.3,0.5,0.7,0.5,1.2c0,0.5-0.2,0.9-0.5,1.2c-0.4,0.3-0.8,0.4-1.4,0.4h-1.4v1.6h-0.4v-4.9h1.8
				C22.3,39.4,22.8,39.6,23.1,39.9z M22.9,42.1c0.3-0.2,0.4-0.6,0.4-1s-0.1-0.8-0.4-1c-0.3-0.2-0.7-0.3-1.2-0.3h-1.4v2.7h1.4
				C22.2,42.4,22.6,42.3,22.9,42.1z"/>
		</g>
		<g class="st2">
			<path class="st1" d="M27.7,41.1c0.3,0.3,0.4,0.6,0.4,1.1v2.1h-0.4v-2.1c0-0.4-0.1-0.7-0.3-0.9c-0.2-0.2-0.5-0.3-0.9-0.3
				c-0.4,0-0.8,0.1-1,0.4c-0.2,0.3-0.4,0.6-0.4,1v1.9h-0.3v-5.2h0.3v2.3c0.1-0.3,0.3-0.4,0.6-0.6c0.2-0.1,0.5-0.2,0.9-0.2
				C27.1,40.7,27.4,40.8,27.7,41.1z"/>
		</g>
		<g class="st2">
			<path class="st1" d="M30,44.1c-0.3-0.2-0.5-0.4-0.7-0.7s-0.2-0.6-0.2-1s0.1-0.7,0.2-1s0.4-0.5,0.7-0.7c0.3-0.2,0.6-0.2,0.9-0.2
				s0.7,0.1,0.9,0.2c0.3,0.2,0.5,0.4,0.7,0.7c0.2,0.3,0.2,0.6,0.2,1s-0.1,0.7-0.2,1c-0.2,0.3-0.4,0.5-0.7,0.7
				c-0.3,0.2-0.6,0.2-0.9,0.2S30.3,44.3,30,44.1z M31.7,43.9c0.2-0.1,0.4-0.3,0.5-0.5s0.2-0.5,0.2-0.8s-0.1-0.6-0.2-0.8
				s-0.3-0.4-0.5-0.5S31.2,41,31,41c-0.3,0-0.5,0.1-0.8,0.2s-0.4,0.3-0.5,0.5s-0.2,0.5-0.2,0.8s0.1,0.6,0.2,0.8s0.3,0.4,0.5,0.5
				c0.2,0.1,0.5,0.2,0.8,0.2C31.2,44.1,31.5,44,31.7,43.9z"/>
		</g>
		<g class="st2">
			<path class="st1" d="M35.7,44.1c-0.1,0.1-0.2,0.1-0.3,0.2c-0.1,0-0.3,0.1-0.4,0.1c-0.3,0-0.6-0.1-0.7-0.3s-0.3-0.4-0.3-0.7V41
				h-0.7v-0.3h0.7v-0.8h0.3v0.8h1.2V41h-1.2v2.4c0,0.2,0.1,0.4,0.2,0.5c0.1,0.1,0.3,0.2,0.5,0.2c0.2,0,0.4-0.1,0.6-0.2L35.7,44.1z"
				/>
		</g>
		<g class="st2">
			<path class="st1" d="M37,44.1c-0.3-0.2-0.5-0.4-0.7-0.7c-0.2-0.3-0.2-0.6-0.2-1s0.1-0.7,0.2-1c0.2-0.3,0.4-0.5,0.7-0.7
				c0.3-0.2,0.6-0.2,0.9-0.2c0.3,0,0.7,0.1,0.9,0.2c0.3,0.2,0.5,0.4,0.7,0.7c0.2,0.3,0.2,0.6,0.2,1s-0.1,0.7-0.2,1
				c-0.2,0.3-0.4,0.5-0.7,0.7c-0.3,0.2-0.6,0.2-0.9,0.2C37.6,44.4,37.3,44.3,37,44.1z M38.7,43.9c0.2-0.1,0.4-0.3,0.5-0.5
				s0.2-0.5,0.2-0.8s-0.1-0.6-0.2-0.8s-0.3-0.4-0.5-0.5S38.2,41,38,41s-0.5,0.1-0.8,0.2s-0.4,0.3-0.5,0.5c-0.1,0.2-0.2,0.5-0.2,0.8
				s0.1,0.6,0.2,0.8c0.1,0.2,0.3,0.4,0.5,0.5c0.2,0.1,0.5,0.2,0.8,0.2S38.5,44,38.7,43.9z"/>
		</g>
	</g>
</g>
</svg>
