<?xml version="1.0" encoding="utf-8"?>
<!-- Generator: Adobe Illustrator 25.3.1, SVG Export Plug-In . SVG Version: 6.00 Build 0)  -->
<svg version="1.1" id="Calque_1" xmlns="http://www.w3.org/2000/svg" xmlns:xlink="http://www.w3.org/1999/xlink" x="0px" y="0px"
	 viewBox="0 0 41.8 13.6" style="enable-background:new 0 0 41.8 13.6;" xml:space="preserve">
<style type="text/css">
	.st0{enable-background:new    ;}
	.st1{fill:#1D1D1B;}
</style>
<g id="Calque_2_1_">
	<g id="profil">
		<g class="st0">
			<path class="st1" d="M1.1,10.4V1.6h6.5v1.1h1.1v2.2H7.6V6H3.3v4.4H1.1z M6.5,4.9V2.7H3.3v2.2H6.5z"/>
			<path class="st1" d="M10.2,10.4V4.9h2.2V6h1.1v1.1h-1.1v3.3H10.2z M13.5,6V4.9h3.3V6H13.5z"/>
			<path class="st1" d="M19.4,10.4V9.3h-1.1V6h1.1V4.9h5.5V6h1.1v3.3h-1.1v1.1H19.4z M23.8,9.3V6h-3.3v3.3H23.8z"/>
			<path class="st1" d="M28.5,10.4V6h-1.1V4.9h1.1V2.7h1.1V1.6h3.3v1.1h-2.2v2.2h2.2V6h-2.2v4.4H28.5z"/>
			<path class="st1" d="M34.4,3.8V1.6h2.2v2.2H34.4z M34.4,10.4V4.9h2.2v5.5H34.4z"/>
			<path class="st1" d="M39.2,10.4V9.3h-1.1V1.6h2.2v7.6h1.1v1.1H39.2z"/>
		</g>
	</g>
</g>
</svg>
