<?xml version="1.0" encoding="utf-8"?>
<!-- Generator: Adobe Illustrator 25.3.1, SVG Export Plug-In . SVG Version: 6.00 Build 0)  -->
<svg version="1.1" id="Calque_1" xmlns="http://www.w3.org/2000/svg" xmlns:xlink="http://www.w3.org/1999/xlink" x="0px" y="0px"
	 viewBox="0 0 276.1 128.8" style="enable-background:new 0 0 276.1 128.8;" xml:space="preserve">
<style type="text/css">
	.st0{fill:none;stroke:#5BC5F2;stroke-miterlimit:10;}
	.st1{fill:none;stroke:#575751;stroke-linecap:round;stroke-linejoin:round;}
	.st2{fill:#FFFFFF;}
	.st3{fill:#575751;}
	.st4{enable-background:new    ;}
	.st5{fill:#1D1D1B;}
	.st6{fill:#777770;}
	.st7{fill:#494947;}
</style>
<g id="spect_icones" transform="translate(-37 -293.5)">
	<g id="crea_spe" transform="translate(37.5 293.5)">
		<circle id="Ellipse_7" class="st0" cx="48.5" cy="49" r="48.5"/>
		<line id="Ligne_24" class="st1" x1="49" y1="108" x2="49" y2="77.3"/>
		<path id="Tracé_1" class="st2" d="M52.8,77.5c0-2.1-1.7-3.8-3.8-3.8c-2.1,0-3.8,1.7-3.8,3.8c0,2.1,1.7,3.8,3.8,3.8
			S52.8,79.6,52.8,77.5L52.8,77.5z"/>
		<path id="Tracé_2" class="st3" d="M53.3,77.5c0,2.4-1.9,4.3-4.3,4.3c-2.4,0-4.3-1.9-4.3-4.3c0-2.4,1.9-4.3,4.3-4.3l0,0
			C51.4,73.2,53.3,75.1,53.3,77.5C53.3,77.5,53.3,77.5,53.3,77.5z M45.8,77.5c0,1.8,1.5,3.3,3.3,3.3c1.8,0,3.3-1.5,3.3-3.3
			c0-1.8-1.5-3.3-3.3-3.3S45.8,75.7,45.8,77.5L45.8,77.5z"/>
		<path id="Tracé_3" class="st3" d="M48.4,35.3c-5.3,0.3-9.4,4.8-9.2,10.1c0.1,2.8,1.4,5.3,3.6,7v5c0,2.8,2.2,5,5,5h2
			c2.8,0,5-2.2,5-5v-5c4.1-3.3,4.8-9.4,1.5-13.6C54.4,36.5,51.4,35.1,48.4,35.3L48.4,35.3z M53.4,51.1l-0.4,0.3v6c0,1.7-1.3,3-3,3
			h-2c-1.7,0-3-1.3-3-3v-6l-0.4-0.3c-3.4-2.5-4.2-7.2-1.8-10.7c1.4-1.9,3.5-3.1,5.8-3.2H49c4.2,0,7.6,3.4,7.6,7.6
			C56.6,47.4,55.4,49.7,53.4,51.1L53.4,51.1z"/>
		<path id="Tracé_4" class="st3" d="M70.6,44.6h-7.3c-0.3,0-0.5,0.2-0.5,0.5s0.2,0.5,0.5,0.5h7.3c0.3,0,0.5-0.2,0.5-0.5
			C71.1,44.9,70.8,44.6,70.6,44.6z"/>
		<path id="Tracé_5" class="st3" d="M34.9,44.6h-7.3c-0.3,0-0.5,0.2-0.5,0.5c0,0.3,0.2,0.5,0.5,0.5h7.3c0.3,0,0.5-0.2,0.5-0.5
			C35.4,44.9,35.2,44.6,34.9,44.6z"/>
		<path id="Tracé_6" class="st3" d="M49,32.3c0.3,0,0.5-0.2,0.5-0.5v-7.3c0-0.3-0.2-0.5-0.5-0.5s-0.5,0.2-0.5,0.5v7.3
			C48.5,32.1,48.8,32.3,49,32.3z"/>
		<path id="Tracé_7" class="st3" d="M64.6,29.6c-0.2-0.2-0.5-0.2-0.7,0c0,0,0,0,0,0l-5.2,5.2c-0.2,0.2-0.2,0.5,0,0.7c0,0,0,0,0,0
			c0.2,0.2,0.5,0.2,0.7,0l5.2-5.2C64.8,30.1,64.8,29.8,64.6,29.6C64.6,29.6,64.6,29.6,64.6,29.6z"/>
		<path id="Tracé_8" class="st3" d="M39.4,34.8l-5.2-5.2c-0.2-0.2-0.5-0.2-0.7,0c0,0,0,0,0,0c-0.2,0.2-0.2,0.5,0,0.7c0,0,0,0,0,0
			l5.2,5.2c0.1,0.1,0.2,0.1,0.4,0.1c0.1,0,0.3-0.1,0.3-0.1C39.6,35.3,39.6,35,39.4,34.8C39.4,34.8,39.4,34.8,39.4,34.8z"/>
		<path id="Tracé_9" class="st3" d="M48.8,39c-3.3,0-6,2.8-5.9,6.1c0,2.3,1.3,4.4,3.4,5.3V56c0.1,1.4,1.3,2.5,2.8,2.5
			c1.3-0.1,2.4-1.1,2.5-2.5v-5.7c2.9-1.6,4-5.2,2.4-8.1C52.9,40.2,50.9,39.1,48.8,39z"/>
		<g class="st4">
			<path class="st5" d="M8.3,124.1v-1.3H7v-1.3H5.8v-5.1H7v-1.3h1.3v-1.3h5.1v1.3h1.3v1.3h-2.5v-1.3H9.6v1.3H8.3v5.1h1.3v1.3h2.5
				v-1.3h2.5v1.3h-1.3v1.3H8.3z"/>
			<path class="st5" d="M16.4,124.1v-6.4H19v1.3h1.3v1.3H19v3.8H16.4z M20.3,119v-1.3h3.8v1.3H20.3z"/>
			<path class="st5" d="M27.1,124.1v-1.3h-1.3V119h1.3v-1.3h6.4v1.3h1.3v2.5h-6.4v1.3h5.1v1.3H27.1z M32.2,120.3V119h-3.8v1.3H32.2z
				 M29,116.4v-1.3h1.3v-1.3h2.5v1.3h-1.3v1.3H29z"/>
			<path class="st5" d="M37.8,124.1v-1.3h-1.3v-1.3h1.3v-1.3h5.1V119h-5.1v-1.3h6.4v1.3h1.3v5.1H37.8z M42.9,122.8v-1.3h-3.8v1.3
				H42.9z"/>
			<path class="st5" d="M49.8,124.1v-1.3h-1.3V119h-1.3v-1.3h1.3v-3.8H51v3.8h2.5v1.3H51v3.8h2.5v1.3H49.8z"/>
			<path class="st5" d="M55.3,116.4v-2.5h2.5v2.5H55.3z M55.3,124.1v-6.4h2.5v6.4H55.3z"/>
			<path class="st5" d="M62.2,124.1v-1.3h-1.3v-1.3h-1.3v-3.8h2.5v3.8h1.3v1.3h1.3v-1.3H66v-3.8h2.5v3.8h-1.3v1.3H66v1.3H62.2z"/>
			<path class="st5" d="M70.3,116.4v-2.5h2.5v2.5H70.3z M70.3,124.1v-6.4h2.5v6.4H70.3z"/>
			<path class="st5" d="M77.2,124.1v-1.3h-1.3V119h-1.3v-1.3h1.3v-3.8h2.5v3.8H81v1.3h-2.5v3.8H81v1.3H77.2z"/>
			<path class="st5" d="M84,124.1v-1.3h-1.3V119H84v-1.3h6.4v1.3h1.3v2.5h-6.4v1.3h5.1v1.3H84z M89.1,120.3V119h-3.8v1.3H89.1z
				 M86,116.4v-1.3h1.3v-1.3h2.5v1.3h-1.3v1.3H86z"/>
		</g>
	</g>
	<g id="design_spe" transform="translate(125.5 293.5)">
		<circle id="Ellipse_8" class="st0" cx="49.5" cy="49" r="48.5"/>
		<path id="Tracé_10" class="st3" d="M46.3,50.8c0.3,0.6,0.8,1.2,1.3,1.6c0.5,0.5,1.2,0.8,1.9,1v0.9c0.1,1.6-0.5,3.2-1.6,4.3
			c-1.1,1.1-2.7,1.7-4.3,1.6c-0.9,0-1.9-0.2-2.7-0.6c-0.8-0.4-1.4-0.9-1.9-1.6c-0.5-0.7-0.9-1.5-1.1-2.3c-0.3-0.9-0.4-1.8-0.4-2.8
			l0.5,0.4l0.8,0.5c0.2,0.2,0.5,0.3,0.7,0.5c0.2,0.1,0.4,0.2,0.6,0.2c0.3,0,0.6-0.2,0.7-0.5c0.2-0.5,0.4-1,0.7-1.4
			c0.2-0.4,0.5-0.7,0.9-1c0.3-0.3,0.7-0.5,1.1-0.6c0.4-0.1,0.9-0.3,1.3-0.3C45.2,50.8,45.7,50.8,46.3,50.8z M56,38.6
			c0.4-0.4,1-0.7,1.6-0.7c0.6,0,1.1,0.2,1.5,0.6c0.4,0.4,0.7,0.9,0.7,1.5c0,0.7-0.2,1.3-0.6,1.9c-2.8,5.2-4.7,8.3-5.8,9.4
			c-0.7,0.7-1.7,1.1-2.7,1.1c-1,0-2-0.4-2.7-1.2c-0.7-0.7-1.1-1.7-1.1-2.7c0-1,0.4-2,1.1-2.6L56,38.6L56,38.6z"/>
		<line id="Ligne_25" class="st1" x1="49" y1="107.8" x2="49" y2="77"/>
		<path id="Tracé_11" class="st2" d="M53,77.2c0-2.1-1.7-3.8-3.8-3.8c-2.1,0-3.8,1.7-3.8,3.8c0,2.1,1.7,3.8,3.8,3.8
			C51.3,81,53,79.3,53,77.2C53,77.2,53,77.2,53,77.2z"/>
		<path id="Tracé_12" class="st3" d="M53.3,77.2c0-2.3-1.9-4.2-4.3-4.2c-2.3,0-4.2,1.9-4.2,4.3c0,2.3,1.9,4.2,4.3,4.2
			C51.4,81.5,53.3,79.6,53.3,77.2L53.3,77.2z M45.8,77.2c0-1.8,1.5-3.2,3.3-3.2c1.8,0,3.2,1.5,3.2,3.3c0,1.8-1.5,3.2-3.3,3.2
			C47.2,80.5,45.8,79,45.8,77.2L45.8,77.2z"/>
		<g class="st4">
			<path class="st5" d="M19.9,123.8v-10.9h6.8v1.4H28v1.4h1.4v5.5H28v1.4h-1.4v1.4H19.9z M25.3,122.5v-1.4h1.4v-5.5h-1.4v-1.4h-2.7
				v8.2H25.3z"/>
			<path class="st5" d="M32.7,123.8v-1.4h-1.4v-4.1h1.4V117h6.8v1.4h1.4v2.7H34v1.4h5.5v1.4H32.7z M38.1,119.7v-1.4H34v1.4H38.1z"/>
			<path class="st5" d="M42.8,123.8v-1.4h6.8v-1.4h-5.5v-1.4h-1.4v-1.4h1.4V117H51v1.4h-5.5v1.4H51v1.4h1.4v1.4H51v1.4H42.8z"/>
			<path class="st5" d="M54.2,115.6v-2.7H57v2.7H54.2z M54.2,123.8V117H57v6.8H54.2z"/>
			<path class="st5" d="M60.2,127.9v-1.4h5.5v-2.7h-5.5v-1.4h-1.4v-4.1h1.4V117h8.2v9.5H67v1.4H60.2z M65.7,122.5v-4.1h-4.1v4.1
				H65.7z"/>
			<path class="st5" d="M70.3,123.8V117h8.2v1.4h1.4v5.5h-2.7v-5.5H73v5.5H70.3z"/>
		</g>
	</g>
	<g id="dev_1" transform="translate(214.5 293.5)">
		<g id="Calque_2_1_">
			<g id="specialité">
				<g id="Groupe_1">
					<path id="Tracé_13" class="st3" d="M49.2,31.3h19.4c-0.1,0.8-0.2,1.6-0.2,2.4c-0.2,2.7-0.4,5.4-0.7,8.1
						c-0.3,3.1-0.6,6.2-0.8,9.2c0,0.4-0.3,0.7-0.6,0.7c-1.8,0.5-3.6,1-5.5,1.5c-0.9,0.2-1.8,0.8-2.9,0.3c0,0.3-0.1,0.6-0.1,0.9
						c-0.3,3.3-0.6,6.6-0.8,9.9c0,0.4-0.2,0.7-0.6,0.8c-2.3,0.7-4.7,1.3-7,2c-0.3,0.1-0.6,0.1-0.9,0c-2.3-0.6-4.5-1.3-6.8-2
						c-0.4-0.1-0.7-0.4-0.7-0.9c-0.2-2.3-0.4-4.6-0.6-6.8c-0.1-1.3-0.2-2.6-0.3-3.8c-0.4,0.1-0.9,0.1-1.3,0.1
						c-2.4-0.7-4.8-1.4-7.2-2.1c-0.3,0-0.6-0.3-0.5-0.6c0,0,0,0,0,0c0-0.5,0-1-0.1-1.4c-0.4-5.1-0.9-10.3-1.3-15.4
						c0-0.6-0.2-1.2-0.2-1.7v-1.1h19.3c0,0.1,0,0.3,0,0.4c-0.2,3-0.5,5.9-0.7,8.9c-0.1,1.4-0.2,2.8-0.3,4.1h2.7
						c-0.1-1.2-0.2-2.3-0.3-3.4c-0.2-2.3-0.4-4.6-0.6-6.9C49.4,33.3,49.3,32.3,49.2,31.3z M65,35.6H52.9l0.2,2.4h5.8
						c-0.1,0.2-0.3,0.3-0.5,0.4c-1.5,0.6-3,1.2-4.5,1.9c-0.2,0.1-0.5,0.3-0.5,0.5c0,0.7,0.1,1.4,0.2,2.2h8.4c-0.1,1-0.1,2-0.2,2.9
						c-0.1,0.2-0.2,0.4-0.4,0.5c-0.9,0.3-1.8,0.5-2.7,0.8l-0.2,2.3c0.4,0,0.7,0,1.1,0c1.3-0.3,2.6-0.8,3.9-1.1
						c0.3,0,0.6-0.3,0.6-0.7c0.1-1.4,0.2-2.8,0.4-4.1c0.1-1,0.2-2,0.2-3h-5.2c1.7-0.9,3.3-1.6,5-2.4c0.2-0.1,0.4-0.2,0.4-0.3
						C64.9,37,64.9,36.3,65,35.6z M44.5,44.7l0.3-3.9h-8.5c-0.2,0-0.5-0.2-0.6-0.3c-0.1-0.8-0.2-1.7-0.2-2.6H45l0.2-2.3H33.1
						l0.6,7.6h8.6l-0.1,1.6H44.5z M51.8,51.5h3.5c0.2,0,0.5-0.2,0.5-0.3c0.1-0.7,0.1-1.3,0.2-2h-5.5c-0.6,0-0.7,0.2-0.7,0.7v7.3
						c0,0.2,0,0.4,0.1,0.7l3.7-0.9v1.3c0.1,0.3-0.2,0.7-0.5,0.7c0,0,0,0-0.1,0c-0.9,0.2-1.8,0.5-2.7,0.8c-0.2,0-0.5,0.2-0.5,0.3v2.2
						c1.8-0.5,3.4-0.9,5-1.4c0.2,0,0.3-0.4,0.3-0.5c0.1-1.5,0.2-2.9,0.3-4.3c0-0.5,0.1-1.1,0.1-1.7l-3.8,0.5L51.8,51.5z M48.2,62.3
						V49.1h-1.8v10.4l-3.7-1v2c0.1,0.2,0.2,0.3,0.3,0.3L48.2,62.3z M39.6,47.1c-1-0.3-2-0.5-3-0.8c-0.2-0.1-0.3-0.3-0.4-0.5
						c-0.1-0.5-0.1-1-0.2-1.5h-2.2c0.1,1.2,0.2,2.3,0.3,3.5c0,0.2,0.2,0.3,0.3,0.4c1.5,0.4,3,0.8,4.5,1.2c0.5,0.1,0.8-0.1,0.7-0.7
						S39.7,47.6,39.6,47.1z M53.6,44.4c0.8,0.4,1.7,0.4,2.5,0H53.6z"/>
					<path id="Tracé_14" class="st2" d="M65,35.6c-0.1,0.7-0.1,1.5-0.2,2.2c0,0.1-0.2,0.3-0.4,0.3c-1.7,0.8-3.3,1.5-5,2.4h5.2
						c-0.1,1.1-0.2,2-0.2,3c-0.1,1.4-0.3,2.8-0.4,4.1c0,0.3-0.2,0.6-0.6,0.7c-1.3,0.3-2.6,0.8-3.9,1.1c-0.4,0-0.7,0-1.1,0l0.2-2.3
						c0.9-0.3,1.8-0.5,2.7-0.8c0.2-0.1,0.4-0.2,0.4-0.5c0.1-0.9,0.2-1.9,0.2-2.9h-8.4c-0.1-0.8-0.2-1.5-0.2-2.2
						c0-0.2,0.3-0.4,0.5-0.5c1.5-0.7,3-1.3,4.5-1.9c0.2-0.1,0.4-0.2,0.5-0.4h-5.8l-0.2-2.4L65,35.6z"/>
					<path id="Tracé_15" class="st2" d="M44.5,44.7h-2.3l0.1-1.6h-8.6l-0.6-7.6h12.1L45,37.8h-9.4c0.1,0.9,0.1,1.8,0.2,2.6
						c0,0.1,0.4,0.3,0.6,0.3h8.5L44.5,44.7z"/>
					<path id="Tracé_16" class="st2" d="M51.8,51.5v3.4l3.8-0.5c0,0.6-0.1,1.1-0.1,1.7c-0.1,1.5-0.2,2.9-0.3,4.3
						c0,0.2-0.2,0.5-0.3,0.5c-1.6,0.5-3.2,0.9-5,1.4v-2.2c0-0.1,0.3-0.3,0.5-0.3c0.9-0.3,1.8-0.5,2.7-0.8c0.4-0.1,0.6-0.3,0.6-0.7
						s0-0.9,0-1.3l-3.7,0.7c0-0.3,0-0.5-0.1-0.7v-7.3c0-0.5,0.1-0.7,0.7-0.7H56c0,0.7-0.1,1.3-0.2,2c0,0.1-0.3,0.3-0.5,0.3h-2.8
						L51.8,51.5z"/>
					<path id="Tracé_17" class="st2" d="M48.2,62.3L43,60.8c-0.2-0.1-0.3-0.2-0.3-0.3v-2l3.7,1V49.1h1.8L48.2,62.3z"/>
					<path id="Tracé_18" class="st2" d="M39.6,47.1c0,0.5,0.1,1.1,0.2,1.6c0.1,0.6-0.2,0.8-0.7,0.7c-1.5-0.3-3-0.8-4.5-1.2
						c-0.2-0.1-0.3-0.2-0.3-0.4c-0.1-1.2-0.2-2.3-0.3-3.5h2.2c0,0.5,0.1,1,0.2,1.5c0,0.2,0.2,0.4,0.4,0.5
						C37.6,46.6,38.5,46.9,39.6,47.1z"/>
					<path id="Tracé_19" class="st2" d="M53.6,44.4h2.5C55.3,44.8,54.4,44.8,53.6,44.4z"/>
				</g>
				<path id="Tracé_20" class="st6" d="M56.7,46.3l-7.6,0.1L49,64.9l7-1.7L56.7,46.3z"/>
				<path id="Tracé_21" class="st6" d="M66.6,33.2L59,33.3l-0.1,18.5l6.1-1.4L66.6,33.2z"/>
				<path id="Tracé_22" class="st7" d="M46.4,44.7l1.1-11.5l-7.6,0.1l-0.1,11.3H46.4z"/>
				<g class="st4">
					<path class="st5" d="M13.9,124.1v-10.9h6.8v1.4H22v1.4h1.4v5.5H22v1.4h-1.4v1.4H13.9z M19.3,122.7v-1.4h1.4v-5.5h-1.4v-1.4
						h-2.7v8.2H19.3z"/>
					<path class="st5" d="M26.7,124.1v-1.4h-1.4v-4.1h1.4v-1.4h6.8v1.4h1.4v2.7H28v1.4h5.5v1.4H26.7z M32.1,120v-1.4H28v1.4H32.1z"
						/>
					<path class="st5" d="M39.5,124.1v-1.4h-1.4v-1.4h-1.4v-4.1h2.7v4.1h1.4v1.4h1.4v-1.4h1.4v-4.1h2.7v4.1H45v1.4h-1.4v1.4H39.5z"
						/>
					<path class="st5" d="M54.9,124.1v-1.4h-1.4v-9.5h2.7v6.8h2v-6.8h1.4v6.8h2v-6.8h2.7v9.5h-1.4v1.4h-1.4v-1.4h-1.4v-1.4h-2.7v1.4
						h-1.4v1.4H54.9z"/>
					<path class="st5" d="M67.7,124.1v-1.4h-1.4v-4.1h1.4v-1.4h6.8v1.4h1.4v2.7h-6.8v1.4h5.5v1.4H67.7z M73.2,120v-1.4h-4.1v1.4
						H73.2z"/>
					<path class="st5" d="M77.8,124.1v-10.9h2.7v4.1H86v1.4h1.4v4.1H86v1.4H77.8z M84.6,122.7v-4.1h-4.1v4.1H84.6z"/>
				</g>
				<circle id="Ellipse_9" class="st0" cx="49.5" cy="49" r="48.5"/>
				<line id="Ligne_26" class="st1" x1="49" y1="108" x2="49" y2="77.3"/>
				<path id="Tracé_23" class="st2" d="M52.8,77.5c0-2.1-1.7-3.8-3.8-3.8c-2.1,0-3.8,1.7-3.8,3.8c0,2.1,1.7,3.8,3.8,3.8
					S52.8,79.6,52.8,77.5L52.8,77.5z"/>
				<path id="Tracé_24" class="st3" d="M53.3,77.5c0,2.4-1.9,4.3-4.3,4.3c-2.4,0-4.3-1.9-4.3-4.3c0-2.4,1.9-4.3,4.3-4.3l0,0
					C51.4,73.2,53.3,75.1,53.3,77.5C53.3,77.5,53.3,77.5,53.3,77.5z M45.8,77.5c0,1.8,1.5,3.3,3.3,3.3c1.8,0,3.3-1.5,3.3-3.3
					c0-1.8-1.5-3.3-3.3-3.3S45.8,75.7,45.8,77.5L45.8,77.5z"/>
			</g>
		</g>
	</g>
</g>
</svg>
