<?xml version="1.0" encoding="utf-8"?>
<!-- Generator: Adobe Illustrator 25.3.1, SVG Export Plug-In . SVG Version: 6.00 Build 0)  -->
<svg version="1.1" id="Calque_1" xmlns="http://www.w3.org/2000/svg" xmlns:xlink="http://www.w3.org/1999/xlink" x="0px" y="0px"
	 viewBox="0 0 83.2 13.6" style="enable-background:new 0 0 83.2 13.6;" xml:space="preserve">
<style type="text/css">
	.st0{enable-background:new    ;}
	.st1{fill:#1D1D1B;}
</style>
<g id="Calque_2_1_">
	<g id="specialité">
		<g class="st0">
			<path class="st1" d="M2.2,10.4V9.3H1.1V8.2h2.2v1.1h3.3V6H2.2V4.9H1.1V2.7h1.1V1.6h5.5v1.1h1.1v1.1H6.5V2.7H3.3v2.2h4.4V6h1.1
				v3.3H7.6v1.1H2.2z"/>
			<path class="st1" d="M10.2,13.6V4.9h6.5V6h1.1v3.3h-1.1v1.1h-4.4v3.3H10.2z M15.7,9.3V6h-3.3v3.3H15.7z"/>
			<path class="st1" d="M20.5,10.4V9.3h-1.1V6h1.1V4.9h5.5V6H27v2.2h-5.5v1.1h4.4v1.1H20.5z M24.8,7.1V6h-3.3v1.1H24.8z M22.1,3.8
				V2.7h1.1V1.6h2.2v1.1h-1.1v1.1H22.1z"/>
			<path class="st1" d="M29.6,10.4V9.3h-1.1V6h1.1V4.9h5.5V6h1.1v1.1H34V6h-3.3v3.3H34V8.2h2.2v1.1h-1.1v1.1H29.6z"/>
			<path class="st1" d="M37.7,3.8V1.6h2.2v2.2H37.7z M37.7,10.4V4.9h2.2v5.5H37.7z"/>
			<path class="st1" d="M42.5,10.4V9.3h-1.1V8.2h1.1V7.1h4.4V6h-4.4V4.9h5.5V6H49v4.4H42.5z M46.9,9.3V8.2h-3.3v1.1H46.9z"/>
			<path class="st1" d="M51.6,10.4V9.3h-1.1V1.6h2.2v7.6h1.1v1.1H51.6z"/>
			<path class="st1" d="M55.3,3.8V1.6h2.2v2.2H55.3z M55.3,10.4V4.9h2.2v5.5H55.3z"/>
			<path class="st1" d="M61.2,10.4V9.3h-1.1V6H59V4.9h1.1V1.6h2.2v3.3h2.2V6h-2.2v3.3h2.2v1.1H61.2z"/>
			<path class="st1" d="M67.1,10.4V9.3H66V6h1.1V4.9h5.5V6h1.1v2.2h-5.5v1.1h4.4v1.1H67.1z M71.5,7.1V6h-3.3v1.1H71.5z M68.7,3.8
				V2.7h1.1V1.6H72v1.1h-1.1v1.1H68.7z"/>
			<path class="st1" d="M75.2,10.4V9.3h5.5V8.2h-4.4V7.1h-1.1V6h1.1V4.9h5.5V6h-4.4v1.1h4.4v1.1h1.1v1.1h-1.1v1.1H75.2z"/>
		</g>
	</g>
</g>
</svg>
