<?xml version="1.0" encoding="utf-8"?>
<!-- Generator: Adobe Illustrator 25.3.1, SVG Export Plug-In . SVG Version: 6.00 Build 0)  -->
<svg version="1.1" id="Calque_1" xmlns="http://www.w3.org/2000/svg" xmlns:xlink="http://www.w3.org/1999/xlink" x="0px" y="0px"
	 viewBox="0 0 100.9 13.6" style="enable-background:new 0 0 100.9 13.6;" xml:space="preserve">
<style type="text/css">
	.st0{enable-background:new    ;}
	.st1{fill:#FFFFFF;}
</style>
<g id="Calque_2_1_">
	<g id="header">
		<g class="st0">
			<path class="st1" d="M2.2,10.4V9.3H1.1V1.6h2.2v5.5h1.6V1.6H6v5.5h1.6V1.6h2.2v7.6H8.7v1.1H7.6V9.3H6.5V8.2H4.4v1.1H3.3v1.1H2.2z
				"/>
			<path class="st1" d="M12.5,10.4V9.3h-1.1V6h1.1V4.9H18V6h1.1v2.2h-5.5v1.1H18v1.1H12.5z M16.9,7.1V6h-3.3v1.1H16.9z"/>
			<path class="st1" d="M20.7,10.4V1.6h2.2v3.3h4.4V6h1.1v3.3h-1.1v1.1H20.7z M26.2,9.3V6h-3.3v3.3H26.2z"/>
			<path class="st1" d="M34.4,10.4V1.6h5.5v1.1h1.1v1.1H42v4.4h-1.1v1.1h-1.1v1.1H34.4z M38.7,9.3V8.2h1.1V3.8h-1.1V2.7h-2.2v6.5
				H38.7z"/>
			<path class="st1" d="M44.7,10.4V9.3h-1.1V6h1.1V4.9h5.5V6h1.1v2.2h-5.5v1.1h4.4v1.1H44.7z M49.1,7.1V6h-3.3v1.1H49.1z"/>
			<path class="st1" d="M52.9,10.4V9.3h5.5V8.2H54V7.1h-1.1V6H54V4.9h5.5V6h-4.4v1.1h4.4v1.1h1.1v1.1h-1.1v1.1H52.9z"/>
			<path class="st1" d="M62.2,3.8V1.6h2.2v2.2H62.2z M62.2,10.4V4.9h2.2v5.5H62.2z"/>
			<path class="st1" d="M67.1,13.6v-1.1h4.4v-2.2h-4.4V9.3H66V6h1.1V4.9h6.5v7.6h-1.1v1.1H67.1z M71.4,9.3V6h-3.3v3.3H71.4z"/>
			<path class="st1" d="M75.3,10.4V4.9h6.5V6h1.1v4.4h-2.2V6h-3.3v4.4H75.3z"/>
			<path class="st1" d="M85.6,10.4V9.3h-1.1V6h1.1V4.9h5.5V6h1.1v2.2h-5.5v1.1h4.4v1.1H85.6z M90,7.1V6h-3.3v1.1H90z"/>
			<path class="st1" d="M93.8,10.4V4.9H96V6h1.1v1.1H96v3.3H93.8z M97.1,6V4.9h3.3V6H97.1z"/>
		</g>
	</g>
</g>
</svg>
